<?xml version="1.0" encoding="utf-8"?>
<svg xmlns="http://www.w3.org/2000/svg" viewBox="-124.2909 151.8957 769.0384 201.5727" width="769.038px" height="201.573px">
    <defs>
        <linearGradient id="paint0_linear_1308_11941" x1="211.607" y1="256.123" x2="302.818" y2="144.495" gradientUnits="userSpaceOnUse" gradientTransform="matrix(0.547777, 0, 0, 0.547777, 244.107883, 79.071078)">
            <stop stop-color="#CE2F55"/>
            <stop offset="0.3177" stop-color="#FF6633"/>
            <stop offset="0.6667" stop-color="#F6821F"/>
            <stop offset="1" stop-color="#FBAD41"/>
        </linearGradient>
        <linearGradient id="paint1_linear_1308_11941" x1="212.077" y1="155.357" x2="504.924" y2="137.531" gradientUnits="userSpaceOnUse" gradientTransform="matrix(0.547777, 0, 0, 0.547777, 244.107883, 79.071078)">
            <stop stop-color="#911476"/>
            <stop offset="0.5104" stop-color="#D63851"/>
            <stop offset="1" stop-color="#FD6436"/>
        </linearGradient>
        <linearGradient id="paint2_linear_1308_11941" x1="457.208" y1="291.576" x2="496.526" y2="381.694" gradientUnits="userSpaceOnUse" gradientTransform="matrix(0.547777, 0, 0, 0.547777, 244.107883, 79.071078)">
            <stop offset="0.3897" stop-color="#F9AB41"/>
            <stop offset="1" stop-color="#F6821F"/>
        </linearGradient>
        <linearGradient id="paint3_linear_1308_11941" x1="228.197" y1="311.162" x2="265.543" y2="371.105" gradientUnits="userSpaceOnUse" gradientTransform="matrix(0.547777, 0, 0, 0.547777, 244.107883, 79.071078)">
            <stop offset="0.3897" stop-color="#F9AB41"/>
            <stop offset="1" stop-color="#F6821F"/>
        </linearGradient>
        <linearGradient id="paint4_linear_1308_11941" x1="308.611" y1="201.695" x2="404.284" y2="201.695" gradientUnits="userSpaceOnUse" gradientTransform="matrix(0.547777, 0, 0, 0.547777, 244.107883, 79.071078)">
            <stop stop-color="#CE2F55"/>
            <stop offset="0.2841" stop-color="#FF6633"/>
            <stop offset="0.706" stop-color="#F6821F"/>
            <stop offset="1" stop-color="#FBAD41"/>
        </linearGradient>
        <linearGradient id="paint5_linear_1308_11941" x1="356.802" y1="187.581" x2="356.802" y2="249.809" gradientUnits="userSpaceOnUse" gradientTransform="matrix(0.547777, 0, 0, 0.547777, 244.107883, 79.071078)">
            <stop stop-color="#FBAD41"/>
            <stop offset="0.682" stop-color="#F6821F"/>
            <stop offset="0.9801" stop-color="#FF6633"/>
        </linearGradient>
        <linearGradient id="paint6_linear_1308_11941" x1="321.237" y1="384.735" x2="397.713" y2="252.273" gradientUnits="userSpaceOnUse" gradientTransform="matrix(0.547777, 0, 0, 0.547777, 244.107883, 79.071078)">
            <stop stop-color="#CE2F55"/>
            <stop offset="0.4605" stop-color="#FF6633"/>
            <stop offset="0.8859" stop-color="#FBAD41"/>
        </linearGradient>
    </defs>
    <mask id="mask0_1308_11941" style="mask-type:alpha" maskUnits="userSpaceOnUse" x="299" y="292" width="126" height="58">
        <path d="M311.425 292.223H300.004V296.782H311.425V292.223Z" fill="#E9F7FB"/>
        <path d="M311.424 305.154H300.003V309.713H311.424V305.154Z" fill="#E9F7FB"/>
        <path d="M311.601 318.086H300.003V322.645H311.601V318.086Z" fill="#E9F7FB"/>
        <path d="M311.601 331.018H300.003V335.576H311.601V331.018Z" fill="#E9F7FB"/>
        <path d="M311.464 344.846H299.924V349.405H311.464V344.846Z" fill="#E9F7FB"/>
        <path d="M391.901 292.223H321.654V296.585H391.901V292.223Z" fill="#E9F7FB"/>
        <path d="M350.699 305.154H321.655V309.516H350.699V305.154Z" fill="#E9F7FB"/>
        <path d="M339.216 318.086H321.655V322.448H339.216V318.086Z" fill="#E9F7FB"/>
        <path d="M424.256 305.154H350.632V309.516H424.256V305.154Z" fill="#E9F7FB"/>
        <path d="M399.717 318.086H343.716V322.448H399.717V318.086Z" fill="#E9F7FB"/>
        <path d="M415.34 318.086H403.461V322.448H415.34V318.086Z" fill="#E9F7FB"/>
        <path d="M350.699 331.238H321.655V335.6H350.699V331.238Z" fill="#E9F7FB"/>
        <path d="M369.955 331.238H355.687V335.6H369.955V331.238Z" fill="#E9F7FB"/>
        <path d="M412.267 331.29H374.237V335.601H412.267V331.29Z" fill="#E9F7FB"/>
        <path d="M377.597 343.949H321.466V348.26H377.597V343.949Z" fill="#E9F7FB"/>
        <path d="M409.515 343.949H383.1V348.26H409.515V343.949Z" fill="#E9F7FB"/>
    </mask>
    <g transform="matrix(1, 0, 0, 1.0000000000000002, 141.7089578672194, 2.530489993172637)">
        <path d="M 152.352 154.334 C 152.602 154.432 152.602 154.432 152.842 154.536 C 159.584 157.288 165.765 161.553 170.903 166.702 C 171.135 166.928 171.366 167.154 171.598 167.379 C 173.258 168.984 174.753 170.644 176.126 172.493 C 176.431 172.895 176.736 173.298 177.047 173.701 C 178.45 175.562 179.707 177.477 180.842 179.515 C 180.94 179.698 181.043 179.881 181.153 180.071 C 183.417 184.14 185.046 188.326 186.376 192.792 C 186.443 193.012 186.51 193.232 186.577 193.463 C 186.876 194.501 187.108 195.422 187.023 196.52 C 187.285 196.6 187.554 196.679 187.822 196.764 C 188.481 196.978 189.079 197.216 189.701 197.521 C 191.294 198.296 192.472 198.607 194.278 198.54 C 199.921 198.339 205.547 199.357 210.874 201.157 C 211.032 201.206 211.191 201.261 211.35 201.316 C 215.688 202.799 220.026 205.014 223.681 207.778 C 223.797 207.863 223.913 207.955 224.029 208.04 C 227.14 210.389 230.374 213.049 232.735 216.173 C 232.735 216.32 232.735 216.466 232.735 216.613 C 232.882 216.613 233.028 216.613 233.181 216.613 C 233.461 216.948 233.461 216.948 233.779 217.412 C 233.895 217.589 234.017 217.76 234.139 217.937 C 234.322 218.217 234.322 218.217 234.517 218.504 C 234.712 218.791 234.712 218.791 234.908 219.078 C 236.012 220.725 237.043 222.403 238.038 224.124 C 238.16 224.325 238.276 224.532 238.404 224.746 C 239.142 226.021 239.142 226.021 239.142 226.772 C 239.288 226.845 239.435 226.918 239.581 226.991 C 239.801 227.479 239.801 227.479 240.039 228.114 C 240.124 228.34 240.21 228.572 240.295 228.809 C 240.387 229.054 240.472 229.298 240.564 229.548 C 240.649 229.786 240.741 230.018 240.826 230.262 C 240.997 230.731 241.168 231.195 241.339 231.665 C 241.528 232.177 241.723 232.678 241.93 233.184 C 242.357 234.325 242.565 235.515 242.797 236.711 C 242.846 236.937 242.888 237.162 242.937 237.394 C 243.559 240.549 243.852 243.648 243.919 246.858 C 243.932 247.419 243.944 247.974 243.962 248.536 C 243.968 248.89 243.98 249.243 243.987 249.597 C 243.993 249.768 243.999 249.933 244.005 250.104 C 244.011 250.5 244.005 250.891 243.999 251.287 C 243.926 251.355 243.852 251.428 243.779 251.507 C 243.724 252.136 243.688 252.764 243.657 253.399 C 243.639 253.661 243.639 253.661 243.627 253.935 C 243.602 254.375 243.578 254.82 243.559 255.26 C 243.413 255.26 243.267 255.26 243.114 255.26 C 243.187 255.43 243.187 255.43 243.254 255.607 C 243.346 256.217 243.218 256.638 243.029 257.218 C 242.87 257.779 242.791 258.329 242.699 258.902 C 242.498 260.061 242.223 261.208 241.204 261.922 C 240.478 262.179 239.783 262.166 239.02 262.16 C 238.764 262.16 238.764 262.16 238.507 262.16 C 237.934 262.16 237.36 262.16 236.787 262.16 C 236.372 262.16 235.957 262.16 235.542 262.16 C 234.395 262.16 233.242 262.16 232.095 262.154 C 230.85 262.154 229.605 262.154 228.361 262.154 C 226.17 262.154 223.986 262.154 221.795 262.148 C 219.452 262.148 217.103 262.142 214.754 262.142 C 214.608 262.142 214.461 262.142 214.309 262.142 C 213.705 262.142 213.101 262.142 212.497 262.142 C 206.371 262.142 200.245 262.136 194.113 262.13 C 193.265 262.13 192.423 262.13 191.575 262.13 C 191.404 262.13 191.239 262.13 191.062 262.13 C 187.34 262.124 183.612 262.124 179.884 262.118 C 179.036 262.118 178.188 262.118 177.334 262.118 C 176.992 262.118 176.65 262.118 176.309 262.118 C 176.144 262.118 175.973 262.118 175.796 262.118 C 175.454 262.118 175.113 262.118 174.771 262.118 C 165.064 262.105 155.35 262.099 145.642 262.087 C 145.462 262.087 145.282 262.087 145.092 262.087 C 143.092 262.087 141.082 262.087 139.082 262.081 C 138.902 262.081 138.722 262.081 138.532 262.081 C 137.022 262.081 137.022 262.081 136.332 262.081 C 124.742 262.069 113.162 262.063 101.572 262.057 C 98.652 262.05 95.732 262.05 92.812 262.05 C 92.632 262.05 92.452 262.05 92.272 262.05 C 86.732 262.044 81.192 262.038 75.652 262.038 C 75.392 262.038 75.392 262.038 75.122 262.038 C 71.312 262.032 67.492 262.026 63.682 262.026 C 62.312 262.026 60.952 262.02 59.582 262.02 C 59.242 262.02 58.902 262.02 58.562 262.02 C 53.152 262.014 47.732 262.014 42.312 262.008 C 36.712 262.008 31.112 262.002 25.502 261.996 C 24.902 261.996 24.302 261.989 23.702 261.989 C 23.472 261.989 23.472 261.989 23.252 261.989 C 20.762 261.989 18.282 261.983 15.802 261.983 C 13.642 261.983 11.482 261.983 9.332 261.977 C 8.092 261.977 6.862 261.977 5.632 261.977 C 4.512 261.977 3.402 261.977 2.282 261.971 C 1.872 261.971 1.472 261.971 1.072 261.971 C 0.522 261.977 -0.018 261.971 -0.568 261.971 C -0.728 261.971 -0.888 261.971 -1.048 261.971 C -1.718 261.965 -2.168 261.916 -2.768 261.593 C -3.298 261.032 -3.398 260.415 -3.518 259.677 C -3.558 259.433 -3.558 259.433 -3.598 259.189 C -4.518 252.764 -3.128 245.467 -0.468 239.579 C -0.378 239.371 -0.378 239.371 -0.278 239.158 C 1.442 235.381 3.792 232.019 6.602 228.98 C 6.872 228.687 6.872 228.687 7.152 228.382 C 8.602 226.869 10.212 225.582 11.902 224.343 C 12.022 224.246 12.152 224.154 12.292 224.056 C 18.252 219.706 25.182 217.857 32.442 217.278 C 32.402 217.064 32.372 216.851 32.342 216.631 C 31.272 208.98 32.372 201.347 37.092 195.025 C 40.382 190.815 44.582 187.575 49.662 185.849 C 49.812 185.8 49.962 185.745 50.112 185.696 C 52.832 184.824 55.492 184.476 58.332 184.494 C 58.552 184.494 58.552 184.494 58.782 184.494 C 61.272 184.513 63.622 184.732 66.002 185.477 C 66.162 185.525 66.312 185.568 66.462 185.617 C 69.302 186.532 71.832 187.978 74.392 189.449 C 74.482 189.022 74.482 189.022 74.562 188.582 C 74.812 187.46 75.222 186.465 75.712 185.422 C 75.792 185.232 75.882 185.043 75.972 184.848 C 77.552 181.443 79.262 178.143 81.462 175.098 C 81.622 174.872 81.622 174.872 81.782 174.646 C 83.132 172.792 84.532 171.034 86.102 169.356 C 86.352 169.063 86.602 168.777 86.842 168.484 C 88.572 166.513 90.452 164.786 92.502 163.169 C 92.742 162.98 92.982 162.785 93.212 162.59 C 102.032 155.439 112.842 151.339 124.082 150.143 C 124.352 150.112 124.612 150.082 124.882 150.051 C 134.242 149.221 143.672 150.82 152.352 154.334 Z" fill="#F28020" style="stroke-width: 1;"/>
        <path d="M 187.023 196.52 C 187.95 196.807 188.829 197.088 189.701 197.521 C 191.294 198.296 192.472 198.607 194.278 198.54 C 199.921 198.339 205.547 199.357 210.874 201.157 C 211.032 201.206 211.191 201.261 211.35 201.316 C 215.688 202.799 220.026 205.014 223.681 207.778 C 223.797 207.863 223.913 207.955 224.029 208.04 C 227.14 210.389 230.374 213.049 232.735 216.173 C 232.735 216.32 232.735 216.466 232.735 216.613 C 232.882 216.613 233.028 216.613 233.181 216.613 C 233.461 216.948 233.461 216.948 233.779 217.412 C 233.895 217.589 234.017 217.76 234.139 217.937 C 234.261 218.126 234.389 218.309 234.517 218.504 C 234.712 218.791 234.712 218.791 234.908 219.078 C 236.012 220.725 237.043 222.403 238.038 224.124 C 238.16 224.325 238.276 224.532 238.404 224.746 C 239.142 226.021 239.142 226.021 239.142 226.772 C 239.288 226.845 239.435 226.918 239.581 226.991 C 239.801 227.479 239.801 227.479 240.039 228.114 C 240.124 228.34 240.21 228.572 240.295 228.809 C 240.387 229.054 240.472 229.298 240.564 229.548 C 240.649 229.786 240.741 230.018 240.826 230.262 C 240.997 230.731 241.168 231.195 241.339 231.665 C 241.528 232.177 241.723 232.678 241.93 233.184 C 242.357 234.325 242.565 235.515 242.797 236.711 C 242.846 236.937 242.888 237.162 242.937 237.394 C 243.559 240.549 243.852 243.648 243.919 246.858 C 243.932 247.419 243.944 247.974 243.962 248.536 C 243.968 248.89 243.98 249.243 243.987 249.597 C 243.993 249.768 243.999 249.933 244.005 250.104 C 244.011 250.5 244.005 250.891 243.999 251.287 C 243.926 251.355 243.852 251.428 243.779 251.507 C 243.724 252.136 243.688 252.764 243.657 253.399 C 243.639 253.661 243.639 253.661 243.627 253.935 C 243.602 254.375 243.578 254.82 243.559 255.26 C 243.413 255.26 243.267 255.26 243.114 255.26 C 243.163 255.375 243.206 255.485 243.254 255.607 C 243.346 256.217 243.218 256.638 243.029 257.218 C 242.87 257.779 242.791 258.329 242.699 258.902 C 242.51 260.006 242.229 260.757 241.57 261.666 C 240.844 262.142 240.24 262.16 239.38 262.154 C 239.111 262.154 238.843 262.154 238.568 262.154 C 238.269 262.154 237.97 262.154 237.672 262.148 C 237.354 262.148 237.037 262.148 236.72 262.148 C 235.847 262.148 234.981 262.142 234.108 262.136 C 233.169 262.136 232.229 262.13 231.283 262.13 C 229.66 262.124 228.031 262.118 226.402 262.111 C 224.047 262.099 221.692 262.093 219.336 262.087 C 215.517 262.075 211.704 262.063 207.878 262.044 C 204.168 262.032 200.458 262.014 196.749 262.002 C 196.517 262.002 196.291 262.002 196.053 262.002 C 194.906 261.996 193.759 261.996 192.612 261.989 C 183.094 261.959 173.575 261.922 164.057 261.886 C 164.197 261.715 164.337 261.538 164.484 261.361 C 165.637 259.891 165.96 257.889 166.418 256.102 C 166.485 255.821 166.485 255.821 166.565 255.54 C 167.547 251.531 167.614 247.016 165.582 243.313 C 163.392 239.975 160.451 238.2 156.546 237.37 C 155.307 237.162 154.099 237.114 152.842 237.095 C 152.622 237.095 152.412 237.089 152.192 237.089 C 151.462 237.077 150.722 237.065 149.992 237.059 C 149.452 237.046 148.912 237.04 148.372 237.034 C 147.022 237.016 145.682 236.998 144.332 236.979 C 143.212 236.961 142.092 236.949 140.972 236.931 C 140.812 236.931 140.652 236.924 140.482 236.924 C 140.152 236.918 139.812 236.912 139.482 236.912 C 130.882 236.79 122.282 236.674 113.672 236.564 C 112.282 236.546 110.892 236.528 109.492 236.51 C 108.092 236.491 106.692 236.473 105.292 236.455 C 105.012 236.449 104.732 236.449 104.452 236.442 C 101.112 236.4 97.762 236.351 94.422 236.308 C 92.292 236.284 90.152 236.253 88.012 236.229 C 86.772 236.211 85.522 236.198 84.282 236.18 C 83.812 236.174 83.342 236.168 82.872 236.162 C 82.642 236.162 82.422 236.156 82.182 236.156 C 80.412 236.131 78.632 236.101 76.862 236.076 C 75.442 236.052 74.022 236.04 72.602 236.034 C 71.612 236.028 70.622 236.015 69.642 236.003 C 69.172 235.997 68.702 235.997 68.232 235.997 C 67.582 235.997 66.932 235.985 66.282 235.979 C 65.992 235.979 65.992 235.979 65.702 235.979 C 64.742 235.96 64.352 235.912 63.562 235.308 C 63.132 234.722 63.132 234.722 63.012 234.057 C 63.182 233.129 63.592 232.586 64.372 232.049 C 65.162 231.756 65.942 231.775 66.772 231.763 C 66.962 231.763 67.152 231.756 67.352 231.75 C 67.992 231.738 68.622 231.732 69.262 231.72 C 69.722 231.714 70.172 231.708 70.632 231.695 C 72.112 231.671 73.582 231.653 75.062 231.628 C 75.422 231.622 75.422 231.622 75.792 231.622 C 79.382 231.567 82.982 231.525 86.572 231.488 C 87.882 231.476 89.202 231.458 90.512 231.445 C 93.142 231.415 95.762 231.384 98.382 231.354 C 98.542 231.354 98.692 231.354 98.852 231.348 C 100.562 231.329 102.272 231.311 103.982 231.293 C 112.582 231.195 121.192 231.098 129.792 230.988 C 130.702 230.975 131.622 230.963 132.542 230.951 C 136.312 230.902 140.082 230.847 143.852 230.792 C 144.972 230.774 146.092 230.762 147.222 230.744 C 148.512 230.725 149.812 230.707 151.112 230.689 C 151.592 230.677 152.062 230.67 152.532 230.67 C 155.936 230.628 159.194 230.414 162.403 229.157 C 162.574 229.09 162.751 229.029 162.928 228.956 C 165.814 227.827 168.426 226.43 170.903 224.563 C 171.104 224.416 171.299 224.264 171.501 224.111 C 177.706 219.242 180.714 213.367 183.423 206.112 C 183.624 205.569 183.826 205.032 184.033 204.495 C 184.509 203.238 184.979 201.975 185.449 200.712 C 185.742 199.931 186.034 199.156 186.327 198.375 C 186.559 197.753 186.791 197.137 187.023 196.52 Z" fill="#F9AE40" style="stroke-width: 1;"/>
        <path d="M 187.023 196.52 C 188.719 197.033 190.287 197.741 191.886 198.503 C 191.819 198.662 191.752 198.821 191.691 198.979 C 190.916 200.944 190.348 202.963 189.811 205.007 C 189.219 207.235 188.603 209.455 187.963 211.676 C 187.92 211.841 187.871 212.006 187.822 212.177 C 187.706 212.579 187.572 212.97 187.432 213.36 C 187.157 214.575 187.169 215.758 187.175 216.997 C 187.169 217.247 187.169 217.491 187.163 217.747 C 187.163 221.286 188.42 224.612 190.897 227.174 C 194.577 230.451 199.189 230.689 203.863 230.914 C 204.778 230.957 205.7 231.006 206.615 231.055 C 207.921 231.128 209.22 231.195 210.52 231.262 C 211.728 231.317 212.942 231.384 214.15 231.451 C 214.626 231.476 215.096 231.5 215.572 231.525 C 216.243 231.561 216.908 231.598 217.579 231.634 C 217.872 231.647 217.872 231.647 218.177 231.659 C 219.306 231.732 220.026 231.842 220.813 232.733 C 220.953 233.727 220.935 234.228 220.52 235.137 C 219.062 236.29 216.615 236.15 214.821 236.266 C 214.559 236.284 214.303 236.302 214.034 236.32 C 211.807 236.467 209.58 236.577 207.347 236.68 C 197.225 237.156 188.402 238.212 180.708 245.491 C 180.177 245.985 180.177 245.985 179.616 246.418 C 178.621 247.242 177.877 248.285 177.09 249.298 C 176.937 249.487 176.791 249.677 176.632 249.872 C 174.747 252.367 173.368 255.034 172.215 257.938 C 172.129 258.158 172.038 258.371 171.952 258.597 C 171.543 259.646 171.22 260.519 171.342 261.666 C 171.488 261.739 171.635 261.813 171.787 261.886 C 169.237 261.886 166.687 261.886 164.057 261.886 C 164.35 261.52 164.643 261.154 164.942 260.781 C 165.668 259.317 166.015 257.676 166.418 256.102 C 166.485 255.821 166.485 255.821 166.565 255.54 C 167.547 251.531 167.614 247.016 165.582 243.313 C 163.392 239.975 160.451 238.2 156.546 237.37 C 155.307 237.162 154.099 237.114 152.842 237.095 C 152.622 237.095 152.412 237.089 152.192 237.089 C 151.462 237.077 150.722 237.065 149.992 237.059 C 149.452 237.046 148.912 237.04 148.372 237.034 C 147.022 237.016 145.682 236.998 144.332 236.979 C 143.212 236.961 142.092 236.949 140.972 236.931 C 140.812 236.931 140.652 236.924 140.482 236.924 C 140.152 236.918 139.812 236.912 139.482 236.912 C 130.882 236.79 122.282 236.674 113.672 236.564 C 112.282 236.546 110.892 236.528 109.492 236.51 C 108.092 236.491 106.692 236.473 105.292 236.455 C 105.012 236.449 104.732 236.449 104.452 236.442 C 101.112 236.4 97.762 236.351 94.422 236.308 C 92.292 236.284 90.152 236.253 88.012 236.229 C 86.772 236.211 85.522 236.198 84.282 236.18 C 83.812 236.174 83.342 236.168 82.872 236.162 C 82.642 236.162 82.422 236.156 82.182 236.156 C 80.412 236.131 78.632 236.101 76.862 236.076 C 75.442 236.052 74.022 236.04 72.602 236.034 C 71.612 236.028 70.622 236.015 69.642 236.003 C 69.172 235.997 68.702 235.997 68.232 235.997 C 67.582 235.997 66.932 235.985 66.282 235.979 C 65.992 235.979 65.992 235.979 65.702 235.979 C 64.742 235.96 64.352 235.912 63.562 235.308 C 63.132 234.722 63.132 234.722 63.012 234.057 C 63.182 233.129 63.592 232.586 64.372 232.049 C 65.162 231.756 65.942 231.775 66.772 231.763 C 66.962 231.763 67.152 231.756 67.352 231.75 C 67.992 231.738 68.622 231.732 69.262 231.72 C 69.722 231.714 70.172 231.708 70.632 231.695 C 72.112 231.671 73.582 231.653 75.062 231.628 C 75.422 231.622 75.422 231.622 75.792 231.622 C 79.382 231.567 82.982 231.525 86.572 231.488 C 87.882 231.476 89.202 231.458 90.512 231.445 C 93.142 231.415 95.762 231.384 98.382 231.354 C 98.542 231.354 98.692 231.354 98.852 231.348 C 100.562 231.329 102.272 231.311 103.982 231.293 C 112.582 231.195 121.192 231.098 129.792 230.988 C 130.702 230.975 131.622 230.963 132.542 230.951 C 136.312 230.902 140.082 230.847 143.852 230.792 C 144.972 230.774 146.092 230.762 147.222 230.744 C 148.512 230.725 149.812 230.707 151.112 230.689 C 151.592 230.677 152.062 230.67 152.532 230.67 C 155.936 230.628 159.194 230.414 162.403 229.157 C 162.574 229.09 162.751 229.029 162.928 228.956 C 165.814 227.827 168.426 226.43 170.903 224.563 C 171.104 224.416 171.299 224.264 171.501 224.111 C 177.706 219.242 180.714 213.367 183.423 206.112 C 183.624 205.569 183.826 205.032 184.033 204.495 C 184.509 203.238 184.979 201.975 185.449 200.712 C 185.742 199.931 186.034 199.156 186.327 198.375 C 186.559 197.753 186.791 197.137 187.023 196.52 Z" fill="#FEFDFD" style="stroke-width: 1;"/>
        <path d="M 151.472 281.319 C 156.906 281.289 156.906 281.289 162.458 281.264 C 163.593 281.252 164.728 281.246 165.899 281.24 C 167.309 281.234 167.309 281.234 167.974 281.234 C 168.426 281.234 168.877 281.228 169.335 281.228 C 174.332 281.179 179.61 281.545 183.49 285.071 C 183.643 285.206 183.795 285.334 183.948 285.468 C 185.851 287.225 186.968 289.397 187.468 291.917 C 187.523 292.222 187.523 292.222 187.59 292.528 C 188.103 296.268 187.688 300.252 185.479 303.4 C 183.85 305.499 182.05 307 179.518 307.818 C 181.782 311.277 181.782 311.277 184.155 314.664 C 185.186 316.092 186.169 317.55 187.151 319.014 C 187.31 319.246 187.462 319.484 187.627 319.728 C 187.773 319.948 187.926 320.167 188.072 320.393 C 188.207 320.594 188.341 320.796 188.475 320.997 C 188.792 321.51 188.792 321.51 189.012 322.175 C 187.31 322.224 185.613 322.266 183.911 322.285 C 183.118 322.297 182.331 322.315 181.538 322.339 C 180.775 322.364 180.012 322.376 179.25 322.382 C 178.816 322.388 178.389 322.407 177.956 322.425 C 176.046 322.425 176.046 322.425 175.284 321.748 C 174.875 321.174 174.545 320.588 174.216 319.966 C 173.966 319.582 173.709 319.203 173.453 318.825 C 173.191 318.428 172.935 318.032 172.672 317.629 C 172.532 317.422 172.391 317.208 172.245 316.988 C 171.806 316.317 171.366 315.652 170.927 314.981 C 170.488 314.304 170.042 313.633 169.597 312.955 C 169.322 312.534 169.048 312.119 168.773 311.698 C 168.651 311.509 168.529 311.326 168.401 311.131 C 168.291 310.966 168.181 310.802 168.072 310.631 C 167.834 310.258 167.834 310.258 167.59 310.027 C 165.295 309.917 165.295 309.917 162.952 309.807 C 162.952 313.889 162.952 317.971 162.952 322.175 C 159.163 322.175 155.374 322.175 151.472 322.175 C 151.472 308.69 151.472 295.212 151.472 281.319 Z M 162.952 291.258 C 162.952 294.388 162.952 297.525 162.952 300.752 C 164.362 300.771 165.765 300.789 167.217 300.807 C 167.876 300.819 167.876 300.819 168.548 300.832 C 170.988 300.856 173.258 300.874 175.113 299.068 C 175.985 297.933 176.235 296.786 176.181 295.371 C 175.973 293.986 175.265 293.04 174.216 292.137 C 172.77 291.252 171.214 291.222 169.573 291.234 C 169.408 291.234 169.237 291.234 169.06 291.234 C 168.438 291.234 167.815 291.24 167.193 291.24 C 165.094 291.252 165.094 291.252 162.952 291.258 Z" fill="#3F3F40" style="stroke-width: 1;"/>
        <path d="M -54.788 281.319 C -33.088 281.319 -33.088 281.319 -29.218 282.686 C -29.028 282.753 -28.828 282.82 -28.628 282.887 C -23.688 284.663 -19.838 288.073 -17.588 292.826 C -16.648 295.078 -15.978 297.647 -15.928 300.087 C -15.908 300.411 -15.908 300.411 -15.898 300.74 C -15.778 306.53 -17.568 311.625 -21.508 315.872 C -22.358 316.744 -22.358 316.744 -22.768 317.092 C -22.918 317.092 -23.058 317.092 -23.208 317.092 C -23.208 317.239 -23.208 317.385 -23.208 317.538 C -32.618 324.005 -43.668 322.175 -54.788 322.175 C -54.788 308.69 -54.788 295.212 -54.788 281.319 Z M -43.308 291.478 C -43.308 298.184 -43.308 304.883 -43.308 311.796 C -36.448 312.199 -36.448 312.199 -30.548 309.209 C -28.448 307.031 -27.638 304.395 -27.628 301.417 C -27.748 298.721 -28.598 296.256 -30.428 294.236 C -34.028 290.99 -38.688 291.478 -43.308 291.478 Z" fill="#3F3F40" style="stroke-width: 1;"/>
        <path d="M -145.51 280.367 C -145.27 280.367 -145.03 280.367 -144.78 280.367 C -139.57 280.447 -134.46 282.216 -130.55 285.737 C -130.44 285.828 -130.33 285.926 -130.22 286.023 C -126.02 289.849 -123.72 295.005 -123.44 300.691 C -123.33 306.982 -125.54 312.437 -129.88 316.958 C -134.73 321.613 -140.73 322.968 -147.25 322.895 C -152.76 322.754 -157.51 320.424 -161.46 316.653 C -161.6 316.537 -161.73 316.421 -161.86 316.299 C -165.22 313.248 -167.16 308.489 -167.47 304.029 C -167.76 297.903 -166.63 292.595 -162.46 287.89 C -162.13 287.536 -161.8 287.189 -161.46 286.841 C -161.33 286.688 -161.2 286.536 -161.05 286.377 C -157.18 282.198 -151.06 280.337 -145.51 280.367 Z M -153.5 294.602 C -155.47 297.342 -156.14 300.569 -155.61 303.876 C -154.94 306.829 -153.49 309.215 -151 310.991 C -148.56 312.492 -146.04 312.937 -143.23 312.437 C -140.52 311.717 -138.28 310.216 -136.76 307.842 C -135.15 304.834 -134.68 301.625 -135.62 298.318 C -136.62 295.456 -138.07 293.443 -140.7 291.917 C -145.28 289.886 -150.19 290.709 -153.5 294.602 Z" fill="#3F3F40" style="stroke-width: 1;"/>
        <path d="M 203.808 281.319 C 214.669 281.319 225.523 281.319 236.714 281.319 C 236.714 284.522 236.714 287.732 236.714 291.033 C 229.569 291.033 222.43 291.033 215.072 291.033 C 215.072 293.003 215.072 294.968 215.072 297 C 221.484 297 227.897 297 234.505 297 C 234.505 299.984 234.505 302.973 234.505 306.055 C 228.092 306.055 221.679 306.055 215.072 306.055 C 215.072 308.166 215.072 310.277 215.072 312.455 C 222.284 312.455 229.502 312.455 236.933 312.455 C 236.933 315.664 236.933 318.868 236.933 322.175 C 225.999 322.175 215.072 322.175 203.808 322.175 C 203.808 308.69 203.808 295.212 203.808 281.319 Z" fill="#3F3F41" style="stroke-width: 1;"/>
        <path d="M -229.59 285.242 C -229.4 285.401 -229.22 285.566 -229.04 285.737 C -228.71 286.029 -228.71 286.029 -228.38 286.328 C -225.4 289.117 -223.28 292.765 -222.42 296.774 C -222.42 297.067 -222.42 297.36 -222.42 297.659 C -226.41 297.659 -230.43 297.659 -234.56 297.659 C -235 296.786 -235.45 295.914 -235.89 295.011 C -237.32 292.912 -239.64 291.716 -242.05 291.094 C -245.16 290.843 -247.92 291.313 -250.46 293.241 C -252.65 295.145 -253.82 298.104 -254.04 300.935 C -254.15 304.114 -253.2 306.848 -251.22 309.307 C -249.36 311.296 -246.93 312.26 -244.26 312.449 C -241.65 312.486 -238.93 311.558 -237.02 309.752 C -236.6 309.288 -236.31 308.873 -236.02 308.318 C -235.14 306.622 -235.14 306.622 -234.17 306.28 C -233.43 306.213 -232.73 306.219 -231.98 306.256 C -231.71 306.262 -231.45 306.262 -231.16 306.268 C -230.32 306.28 -229.46 306.311 -228.62 306.341 C -228.02 306.354 -227.45 306.366 -226.88 306.372 C -225.46 306.402 -224.05 306.445 -222.63 306.494 C -222.7 306.848 -222.77 307.196 -222.84 307.549 C -222.88 307.745 -222.92 307.94 -222.95 308.141 C -223.67 311.473 -225.86 314.243 -228.16 316.653 C -228.33 316.854 -228.33 316.854 -228.51 317.056 C -230.94 319.722 -234.65 321.516 -238.1 322.394 C -238.74 322.419 -238.74 322.419 -239.2 322.394 C -239.27 322.541 -239.35 322.687 -239.42 322.834 C -240.37 322.998 -241.34 323.017 -242.29 323.053 C -242.56 323.072 -242.84 323.078 -243.13 323.096 C -249.65 323.236 -255.57 321.064 -260.31 316.555 C -264.59 312.016 -266.14 306.457 -265.99 300.331 C -265.74 294.779 -263.14 289.849 -259.18 286.005 C -251.22 279.007 -237.83 278.195 -229.59 285.242 Z" fill="#3F3F40" style="stroke-width: 1;"/>
        <path d="M -110.01 281.319 C -106.15 281.319 -102.28 281.319 -98.298 281.319 C -98.298 283.003 -98.288 284.693 -98.278 286.426 C -98.268 287.5 -98.258 288.574 -98.258 289.648 C -98.248 291.344 -98.228 293.046 -98.228 294.748 C -98.218 296.115 -98.208 297.488 -98.198 298.861 C -98.198 299.38 -98.188 299.904 -98.188 300.423 C -98.308 305.768 -98.308 305.768 -96.088 310.472 C -94.298 312.034 -92.418 312.339 -90.088 312.303 C -88.388 312.162 -86.848 311.619 -85.598 310.429 C -83.868 308.33 -83.658 305.743 -83.648 303.132 C -83.648 302.894 -83.648 302.656 -83.648 302.412 C -83.638 301.637 -83.638 300.856 -83.628 300.081 C -83.628 299.538 -83.618 299.001 -83.618 298.458 C -83.608 297.037 -83.598 295.615 -83.588 294.199 C -83.578 292.491 -83.568 290.789 -83.548 289.08 C -83.538 286.493 -83.518 283.906 -83.498 281.319 C -79.638 281.319 -75.778 281.319 -71.798 281.319 C -71.778 287.231 -71.778 287.231 -71.778 289.77 C -71.768 291.496 -71.768 293.223 -71.758 294.95 C -71.758 296.341 -71.758 297.732 -71.758 299.129 C -71.758 299.654 -71.748 300.185 -71.748 300.716 C -71.718 306.787 -71.918 313.071 -76.388 317.708 C -76.548 317.873 -76.708 318.032 -76.878 318.197 C -77.008 318.337 -77.138 318.471 -77.278 318.618 C -79.388 320.643 -82.238 321.784 -85.048 322.394 C -85.388 322.468 -85.388 322.468 -85.728 322.541 C -91.498 323.578 -98.068 323.023 -103.16 319.966 C -103.16 319.82 -103.16 319.673 -103.16 319.521 C -103.29 319.466 -103.42 319.405 -103.55 319.344 C -106.36 317.861 -108.03 314.682 -109 311.772 C -110.21 307.781 -110.04 303.602 -110.03 299.477 C -110.03 298.952 -110.03 298.428 -110.03 297.903 C -110.03 296.53 -110.03 295.157 -110.02 293.784 C -110.02 292.131 -110.02 290.477 -110.02 288.824 C -110.01 286.322 -110.01 283.821 -110.01 281.319 Z" fill="#3F3F40" style="stroke-width: 1;"/>
        <path d="M 108.622 280.88 C 112.342 280.88 116.062 280.88 119.892 280.88 C 120.282 281.801 120.662 282.728 121.062 283.68 C 123.632 289.818 126.222 295.95 128.832 302.076 C 130.792 306.683 132.742 311.29 134.682 315.902 C 134.892 316.397 135.102 316.885 135.302 317.379 C 135.632 318.142 135.952 318.91 136.272 319.673 C 136.362 319.887 136.442 320.094 136.542 320.314 C 136.622 320.503 136.702 320.686 136.772 320.875 C 136.842 321.034 136.912 321.192 136.982 321.351 C 137.112 321.729 137.112 321.729 137.112 322.175 C 132.962 322.175 128.812 322.175 124.522 322.175 C 124.312 321.516 124.092 320.863 123.862 320.186 C 123.702 319.771 123.542 319.356 123.362 318.941 C 123.232 318.63 123.232 318.63 123.102 318.306 C 122.922 317.867 122.732 317.434 122.552 316.995 C 122.462 316.787 122.372 316.58 122.282 316.366 C 122.212 316.177 122.132 315.988 122.052 315.793 C 121.872 315.329 121.872 315.329 121.872 314.883 C 116.772 314.957 111.672 315.03 106.422 315.109 C 105.472 317.44 104.522 319.771 103.552 322.175 C 99.542 322.175 95.532 322.175 91.402 322.175 C 91.852 320.826 92.312 319.539 92.882 318.245 C 92.962 318.062 93.042 317.879 93.122 317.69 C 93.292 317.306 93.452 316.915 93.622 316.525 C 94.072 315.481 94.522 314.438 94.972 313.395 C 95.062 313.181 95.152 312.974 95.252 312.754 C 96.072 310.832 96.882 308.91 97.682 306.976 C 98.912 304.017 100.152 301.064 101.392 298.116 C 101.482 297.909 101.572 297.702 101.662 297.494 C 102.382 295.774 103.112 294.059 103.832 292.338 C 104.412 290.972 104.992 289.599 105.572 288.226 C 105.842 287.585 106.112 286.945 106.392 286.31 C 106.552 285.913 106.722 285.517 106.882 285.126 C 106.992 284.864 106.992 284.864 107.112 284.596 C 107.632 283.363 108.132 282.118 108.622 280.88 Z M 114.142 294.791 C 113.552 296.292 112.952 297.793 112.352 299.294 C 112.152 299.807 111.952 300.313 111.742 300.826 C 111.452 301.564 111.162 302.296 110.872 303.028 C 110.782 303.26 110.682 303.486 110.592 303.724 C 110.512 303.937 110.422 304.145 110.332 304.364 C 110.222 304.645 110.222 304.645 110.112 304.932 C 109.922 305.377 109.922 305.377 109.952 305.829 C 112.792 305.829 115.632 305.829 118.562 305.829 C 117.202 302.131 115.822 298.452 114.362 294.791 C 114.292 294.791 114.222 294.791 114.142 294.791 Z" fill="#3F3F40" style="stroke-width: 1;"/>
        <path d="M 0.202 281.319 C 10.982 281.319 21.772 281.319 32.882 281.319 C 32.882 284.596 32.882 287.878 32.882 291.258 C 25.882 291.258 18.892 291.258 11.682 291.258 C 11.682 293.516 11.682 295.774 11.682 298.104 C 18.022 298.104 24.362 298.104 30.892 298.104 C 30.892 301.234 30.892 304.371 30.892 307.598 C 24.552 307.598 18.212 307.598 11.682 307.598 C 11.682 312.406 11.682 317.22 11.682 322.175 C 7.892 322.175 4.102 322.175 0.202 322.175 C 0.202 308.69 0.202 295.212 0.202 281.319 Z" fill="#3F3F40" style="stroke-width: 1;"/>
        <path d="M 48.342 281.319 C 52.132 281.319 55.922 281.319 59.822 281.319 C 59.822 291.448 59.822 301.576 59.822 312.016 C 66.312 312.016 72.792 312.016 79.472 312.016 C 79.472 315.365 79.472 318.721 79.472 322.175 C 69.202 322.175 58.922 322.175 48.342 322.175 C 48.342 308.69 48.342 295.212 48.342 281.319 Z" fill="#3F3F40" style="stroke-width: 1;"/>
        <path d="M -210.05 281.319 C -206.25 281.319 -202.48 281.319 -198.56 281.319 C -198.56 291.448 -198.56 301.576 -198.56 312.016 C -192.07 312.016 -185.6 312.016 -178.91 312.016 C -178.91 315.365 -178.91 318.721 -178.91 322.175 C -189.18 322.175 -199.47 322.175 -210.05 322.175 C -210.05 308.69 -210.05 295.212 -210.05 281.319 Z" fill="#3F3F40" style="stroke-width: 1;"/>
    </g>
    <g transform="matrix(1.0960279703140259, 0, 0, 1.0960279703140259, 29.61934745676149, 40.015374362255784)" style="">
        <path d="M 511.199 152.446 L 511.199 249.77" stroke="#FEEFD9" stroke-width="3.17406" stroke-dasharray="7.14 7.14" style="stroke-width: 3.174;"/>
        <path d="M 378.261 153.684 L 378.261 251.008" stroke="#FBAD41" stroke-width="3.17406" stroke-dasharray="7.14 7.14" style="stroke-width: 3.174;"/>
        <path d="M 406.56 173.946 C 406.56 158.039 392.484 147.492 381.332 147.492 C 369.334 147.492 357.707 154.959 354.702 166.708 C 344.066 164.654 332.848 173.216 332.848 185.694 C 332.848 197.494 343.017 204.878 349.749 204.878 L 410.495 204.878 C 418.058 204.878 424.913 197.608 424.913 190.084 C 424.912 179.31 416.954 172.599 406.56 173.946 Z" fill="url(#paint0_linear_1308_11941)" style="stroke-width: 1;"/>
        <path d="M 541.925 170.354 C 541.925 153.628 527.116 142.538 515.383 142.538 C 502.761 142.538 490.528 150.389 487.367 162.744 C 476.178 160.584 464.375 169.587 464.375 182.708 C 464.375 195.115 475.074 202.88 482.156 202.88 L 546.065 202.88 C 554.021 202.88 561.234 195.235 561.234 187.323 C 561.232 175.995 552.86 168.938 541.925 170.354 Z" fill="#FEEFD9" style="stroke-width: 1;"/>
        <path fill-rule="evenodd" clip-rule="evenodd" d="M 393.13 191.099 L 393.007 191.099 C 378.019 191.099 365.876 178.953 365.876 163.978 C 365.876 149.002 378.026 136.856 393.007 136.856 C 394.666 136.856 396.299 137.006 397.874 137.292 C 400.399 117.431 417.372 102.078 437.923 102.078 C 455.682 102.078 470.761 113.535 476.162 129.46 C 478.915 128.373 481.909 127.775 485.045 127.775 C 498.38 127.775 509.195 138.581 509.195 151.917 C 509.195 154.128 508.896 156.269 508.343 158.298 C 509.533 158.025 510.776 157.882 512.052 157.882 C 521.228 157.882 528.666 165.318 528.666 174.491 C 528.666 183.663 521.228 191.099 512.052 191.099 C 511.961 191.099 511.876 191.099 511.792 191.099 L 393.13 191.099 Z" fill="white" stroke="url(#paint1_linear_1308_11941)" stroke-width="2.38055" stroke-miterlimit="10" style="stroke-width: 2.381;"/>
        <path d="M 528.095 234.603 L 494.747 234.603 C 493.818 234.603 493.065 235.356 493.065 236.285 L 493.065 283.853 C 493.065 284.782 493.818 285.535 494.747 285.535 L 528.095 285.535 C 529.024 285.535 529.777 284.782 529.777 283.853 L 529.777 236.285 C 529.777 235.356 529.024 234.603 528.095 234.603 Z" fill="#FEEFD9" stroke="#CD2F55" stroke-width="1.58703" stroke-miterlimit="10" style="stroke-width: 1.587;"/>
        <path d="M 528.192 238.88 L 494.65 238.88 L 494.65 282.737 L 528.192 282.737 L 528.192 238.88 Z" fill="white" style="stroke-width: 1;"/>
        <path d="M 514.306 236.679 L 510.213 236.679 C 510.043 236.679 509.905 236.817 509.905 236.986 C 509.905 237.156 510.043 237.294 510.213 237.294 L 514.306 237.294 C 514.476 237.294 514.613 237.156 514.613 236.986 C 514.613 236.817 514.476 236.679 514.306 236.679 Z" fill="#CD2F55" style="stroke-width: 1;"/>
        <path d="M 508.749 237.506 C 509.036 237.506 509.268 237.274 509.268 236.986 C 509.268 236.699 509.036 236.467 508.749 236.467 C 508.461 236.467 508.229 236.699 508.229 236.986 C 508.229 237.274 508.461 237.506 508.749 237.506 Z" fill="#CD2F55" style="stroke-width: 1;"/>
        <path d="M 528.094 238.732 L 494.685 238.732 L 494.685 282.907 L 528.126 282.907 L 528.126 238.732 L 528.094 238.732 Z" fill="url(#paint2_linear_1308_11941)" style="stroke-width: 1;"/>
        <path d="M 523.998 243.686 L 503.356 243.686 L 503.356 245.337 L 523.998 245.337 L 523.998 243.686 Z" fill="#FEEFD9" fill-opacity="0.75" style="stroke-width: 1;"/>
        <path d="M 532.623 267.62 L 511.567 267.62 L 511.567 269.271 L 532.623 269.271 L 532.623 267.62 Z" fill="#FEEFD9" fill-opacity="0.75" style="stroke-width: 1;"/>
        <path d="M 523.998 252.768 L 507.896 252.768 L 507.896 254.419 L 523.998 254.419 L 523.998 252.768 Z" fill="#FEEFD9" fill-opacity="0.75" style="stroke-width: 1;"/>
        <path d="M 518.493 257.31 L 503.356 257.31 L 503.356 258.961 L 518.493 258.961 L 518.493 257.31 Z" fill="#FEEFD9" fill-opacity="0.75" style="stroke-width: 1;"/>
        <path d="M 523.998 261.851 L 499.227 261.851 L 499.227 263.503 L 523.998 263.503 L 523.998 261.851 Z" fill="#FEEFD9" fill-opacity="0.75" style="stroke-width: 1;"/>
        <path d="M 521.52 266.392 L 507.896 266.392 L 507.896 268.044 L 521.52 268.044 L 521.52 266.392 Z" fill="#FEEFD9" fill-opacity="0.75" style="stroke-width: 1;"/>
        <path d="M 523.998 270.934 L 503.356 270.934 L 503.356 272.585 L 523.998 272.585 L 523.998 270.934 Z" fill="#FEEFD9" fill-opacity="0.75" style="stroke-width: 1;"/>
        <path d="M 501.704 243.686 L 499.227 243.686 L 499.227 245.337 L 501.704 245.337 L 501.704 243.686 Z" fill="#FEEFD9" fill-opacity="0.75" style="stroke-width: 1;"/>
        <path d="M 501.704 257.31 L 499.227 257.31 L 499.227 258.961 L 501.704 258.961 L 501.704 257.31 Z" fill="#FEEFD9" fill-opacity="0.75" style="stroke-width: 1;"/>
        <path d="M 501.704 270.934 L 499.227 270.934 L 499.227 272.585 L 501.704 272.585 L 501.704 270.934 Z" fill="#FEEFD9" fill-opacity="0.75" style="stroke-width: 1;"/>
        <path d="M 506.245 252.768 L 499.227 252.768 L 499.227 254.419 L 506.245 254.419 L 506.245 252.768 Z" fill="#FEEFD9" fill-opacity="0.75" style="stroke-width: 1;"/>
        <path d="M 506.245 266.392 L 499.227 266.392 L 499.227 268.044 L 506.245 268.044 L 506.245 266.392 Z" fill="#FEEFD9" fill-opacity="0.75" style="stroke-width: 1;"/>
        <path d="M 387.684 245.75 L 368.794 245.75 C 368.068 245.75 367.479 246.339 367.479 247.065 L 367.479 284.24 C 367.479 284.967 368.068 285.556 368.794 285.556 L 387.684 285.556 C 388.41 285.556 388.998 284.967 388.998 284.24 L 388.998 247.065 C 388.998 246.339 388.41 245.75 387.684 245.75 Z" fill="#FEEFD9" style="stroke-width: 1;"/>
        <path d="M 368.794 246.185 L 387.684 246.185 L 387.684 245.315 L 368.794 245.315 L 368.794 246.185 Z M 387.684 246.185 C 388.17 246.185 388.564 246.579 388.564 247.065 L 389.433 247.065 C 389.433 246.099 388.65 245.315 387.684 245.315 L 387.684 246.185 Z M 388.564 247.065 L 388.564 284.24 L 389.433 284.24 L 389.433 247.065 L 388.564 247.065 Z M 388.564 284.24 C 388.564 284.727 388.17 285.121 387.684 285.121 L 387.684 285.99 C 388.65 285.99 389.433 285.207 389.433 284.24 L 388.564 284.24 Z M 387.684 285.121 L 368.794 285.121 L 368.794 285.99 L 387.684 285.99 L 387.684 285.121 Z M 368.794 285.121 C 368.308 285.121 367.914 284.727 367.914 284.24 L 367.045 284.24 C 367.045 285.207 367.828 285.99 368.794 285.99 L 368.794 285.121 Z M 367.914 284.24 L 367.914 247.065 L 367.045 247.065 L 367.045 284.24 L 367.914 284.24 Z M 367.914 247.065 C 367.914 246.579 368.308 246.185 368.794 246.185 L 368.794 245.315 C 367.828 245.315 367.045 246.099 367.045 247.065 L 367.914 247.065 Z" fill="#CD2F55" style="stroke-width: 1;"/>
        <path d="M 379.82 247.596 L 376.277 247.596 C 376.13 247.596 376.011 247.715 376.011 247.862 C 376.011 248.009 376.13 248.128 376.277 248.128 L 379.82 248.128 C 379.967 248.128 380.086 248.009 380.086 247.862 C 380.086 247.715 379.967 247.596 379.82 247.596 Z" fill="#CD2F55" style="stroke-width: 1;"/>
        <path d="M 369.768 248.537 C 370.153 248.537 370.464 248.225 370.464 247.84 C 370.464 247.456 370.153 247.143 369.768 247.143 C 369.383 247.143 369.071 247.456 369.071 247.84 C 369.071 248.225 369.383 248.537 369.768 248.537 Z" fill="#CD2F55" style="stroke-width: 1;"/>
        <path d="M 387.327 249.473 L 369.179 249.473 L 369.179 283.74 L 387.345 283.74 L 387.345 249.473 L 387.327 249.473 Z" fill="url(#paint3_linear_1308_11941)" style="stroke-width: 1;"/>
        <circle cx="438.937" cy="189.349" r="33.234" fill="#E0EDFF" style="stroke-width: 1;"/>
        <path d="M 439.143 215.978 C 453.736 215.978 465.566 204.148 465.566 189.556 C 465.566 174.963 453.736 163.133 439.143 163.133 C 424.55 163.133 412.72 174.963 412.72 189.556 C 412.72 204.148 424.55 215.978 439.143 215.978 Z" fill="white" stroke="url(#paint4_linear_1308_11941)" stroke-width="2.38055" stroke-miterlimit="10" style="stroke-width: 2.381;"/>
        <rect x="431.911" y="144.257" width="15.886" height="55.325" fill="white" style="stroke-width: 1;"/>
        <path d="M 457.721 188.343 L 439.556 206.101 M 439.556 206.101 L 421.391 188.343 M 439.556 206.101 L 439.556 187.065 L 439.556 162.132 M 439.556 156.146 L 439.556 147.069 M 439.556 141.283 L 439.556 132.206" stroke="url(#paint5_linear_1308_11941)" stroke-width="11.5774" style="stroke-width: 11.577;"/>
        <path fill-rule="evenodd" clip-rule="evenodd" d="M 482.364 222.623 L 399.19 222.623 C 398.086 222.626 397.026 223.064 396.242 223.842 C 395.457 224.62 395.01 225.675 394.998 226.78 L 394.998 281.487 L 486.556 281.487 L 486.556 226.78 C 486.545 225.675 486.098 224.619 485.314 223.841 C 484.529 223.063 483.469 222.625 482.364 222.623 Z" fill="white" stroke="#CD2F55" stroke-width="1.58703" stroke-miterlimit="10" style="stroke-width: 1.587;"/>
        <path d="M 482.712 229.163 L 398.686 229.163 L 398.686 278.129 L 482.712 278.129 L 482.712 229.163 Z" fill="white" style="stroke-width: 1;"/>
        <path d="M 440.777 226.707 C 441.182 226.707 441.512 226.378 441.512 225.972 C 441.512 225.566 441.182 225.237 440.777 225.237 C 440.371 225.237 440.041 225.566 440.041 225.972 C 440.041 226.378 440.371 226.707 440.777 226.707 Z" fill="#CD2F55" style="stroke-width: 1;"/>
        <path fill-rule="evenodd" clip-rule="evenodd" d="M 490.262 285.711 L 391.404 285.711 C 386.266 285.711 382.804 284.924 382.804 284.174 L 382.804 281.893 C 382.818 281.773 382.878 281.663 382.972 281.587 C 383.066 281.511 383.186 281.475 383.306 281.486 L 498.359 281.486 C 498.48 281.475 498.6 281.511 498.694 281.587 C 498.788 281.663 498.849 281.773 498.862 281.893 L 498.862 284.17 C 498.861 284.763 496.181 285.711 490.262 285.711 Z" fill="white" stroke="#CD2F55" stroke-width="1.58703" stroke-miterlimit="10" style="stroke-width: 1.587;"/>
        <path d="M 383.002 281.878 L 383.002 284.17 L 498.65 284.17 L 498.65 281.878 C 498.65 281.827 498.631 281.779 498.595 281.744 C 498.559 281.708 498.511 281.688 498.46 281.688 L 383.194 281.688 C 383.143 281.688 383.094 281.708 383.058 281.744 C 383.023 281.779 383.002 281.827 383.002 281.878 Z" fill="#FEEFD9" style="stroke-width: 1;"/>
        <path fill-rule="evenodd" clip-rule="evenodd" d="M 453.353 281.688 L 453.353 282.168 C 453.353 282.537 452.627 282.648 452.077 282.648 L 429.51 282.648 C 428.931 282.648 428.2 282.537 428.2 282.168 L 428.2 281.688 L 453.353 281.688 Z" fill="#CD2F55" style="stroke-width: 1;"/>
        <path d="M 401.658 231.708 C 402.01 231.708 402.296 231.422 402.296 231.069 C 402.296 230.716 402.01 230.43 401.658 230.43 C 401.305 230.43 401.019 230.716 401.019 231.069 C 401.019 231.422 401.305 231.708 401.658 231.708 Z" fill="white" style="stroke-width: 1;"/>
        <path d="M 403.723 231.708 C 404.076 231.708 404.362 231.422 404.362 231.069 C 404.362 230.716 404.076 230.43 403.723 230.43 C 403.37 230.43 403.085 230.716 403.085 231.069 C 403.085 231.422 403.37 231.708 403.723 231.708 Z" fill="white" style="stroke-width: 1;"/>
        <path d="M 405.789 231.708 C 406.142 231.708 406.428 231.422 406.428 231.069 C 406.428 230.716 406.142 230.43 405.789 230.43 C 405.436 230.43 405.15 230.716 405.15 231.069 C 405.15 231.422 405.436 231.708 405.789 231.708 Z" fill="white" style="stroke-width: 1;"/>
        <path d="M 482.712 229.237 L 399.316 229.237 L 399.316 277.839 L 482.712 277.839 L 482.712 229.237 Z" fill="url(#paint6_linear_1308_11941)" stroke="#CD2F55" stroke-width="1.65685" stroke-miterlimit="10" style="stroke-width: 1.657;"/>
        <path d="M 482.489 229.46 L 399.429 229.46 L 399.429 233.035 L 482.511 233.035 L 482.511 229.46 L 482.489 229.46 Z" fill="#FF6632" stroke="#CD2F55" stroke-width="1.65685" stroke-miterlimit="10" style="stroke-width: 1.657;"/>
        <path d="M 402.289 231.761 C 402.646 231.761 402.914 231.471 402.914 231.136 C 402.914 230.8 402.624 230.51 402.289 230.51 C 401.953 230.51 401.663 230.8 401.663 231.136 C 401.663 231.471 401.931 231.761 402.289 231.761 Z" fill="white" style="stroke-width: 1;"/>
        <path d="M 404.322 231.761 C 404.68 231.761 404.948 231.471 404.948 231.136 C 404.948 230.8 404.658 230.51 404.322 230.51 C 403.965 230.51 403.697 230.8 403.697 231.136 C 403.697 231.471 403.987 231.761 404.322 231.761 Z" fill="white" style="stroke-width: 1;"/>
        <path d="M 406.378 231.761 C 406.736 231.761 407.004 231.471 407.004 231.136 C 407.004 230.8 406.714 230.51 406.378 230.51 C 406.021 230.51 405.753 230.8 405.753 231.136 C 405.753 231.471 406.021 231.761 406.378 231.761 Z" fill="white" style="stroke-width: 1;"/>
        <g mask="url(#mask0_1308_11941)" transform="matrix(0.547777, 0, 0, 0.547777, 244.107887, 79.071085)" style="">
            <rect x="298.049" y="288.827" width="124.274" height="64.1866" fill="#E9F7FB"/>
        </g>
        <path d="M 378.469 273.744 C 382.635 273.744 386.019 270.36 386.019 266.194 C 386.019 262.027 382.635 258.643 378.469 258.643 C 374.302 258.643 370.917 262.027 370.917 266.194 C 370.917 270.36 374.302 273.744 378.469 273.744 Z" fill="white" stroke="#FF6633" stroke-width="1.19027" style="stroke-width: 1.19;"/>
        <path d="M 375.431 262.551 L 375.261 262.287 C 376.924 261.228 379.627 261.228 381.27 262.287 L 381.101 262.551 C 379.532 261.531 376.999 261.531 375.431 262.551 Z" fill="#FF6632" stroke="#FF6633" stroke-width="0.396758" style="stroke-width: 0.397;"/>
        <path d="M 374.277 264.951 L 374.013 264.781 C 374.486 264.082 375.128 263.515 375.865 263.137 C 376.602 262.74 377.434 262.532 378.284 262.532 C 379.135 262.532 379.948 262.74 380.703 263.137 C 381.441 263.534 382.083 264.101 382.555 264.781 L 382.291 264.951 C 381.837 264.308 381.233 263.779 380.533 263.421 C 379.834 263.061 379.04 262.872 378.247 262.872 C 377.472 262.891 376.697 263.08 376.016 263.439 C 375.317 263.799 374.731 264.308 374.277 264.951 Z" fill="#FF6632" stroke="#FF6633" stroke-width="0.396758" style="stroke-width: 0.397;"/>
        <path d="M 379.683 270.64 C 378.965 270.47 378.322 270.111 377.812 269.601 C 377.51 269.336 377.283 268.996 377.113 268.637 C 376.943 268.278 376.867 267.881 376.848 267.484 C 376.848 266.445 377.529 265.916 378.152 265.878 C 378.322 265.859 378.493 265.896 378.644 265.953 C 378.795 266.01 378.946 266.085 379.06 266.199 C 379.192 266.312 379.286 266.445 379.362 266.596 C 379.438 266.747 379.475 266.917 379.475 267.068 C 379.475 267.239 379.532 267.408 379.607 267.56 C 379.683 267.711 379.796 267.843 379.929 267.957 C 380.212 268.126 380.534 268.164 380.836 268.108 L 380.855 268.108 C 380.892 268.108 381.668 268.013 381.592 266.879 C 381.536 266.048 381.138 265.273 380.514 264.725 C 379.891 264.176 379.078 263.893 378.247 263.931 C 377.68 263.912 377.132 264.044 376.621 264.29 C 376.111 264.554 375.695 264.932 375.374 265.387 C 375.034 265.916 374.826 266.52 374.769 267.163 C 374.712 267.786 374.807 268.429 375.053 269.015 L 374.75 269.128 C 374.486 268.504 374.391 267.805 374.448 267.125 C 374.505 266.445 374.732 265.783 375.11 265.216 C 375.45 264.706 375.922 264.29 376.47 264.007 C 377.019 263.723 377.623 263.591 378.247 263.61 C 379.154 263.572 380.042 263.893 380.723 264.498 C 381.403 265.103 381.819 265.953 381.894 266.861 C 381.97 268.221 381.025 268.41 380.892 268.429 C 380.496 268.524 380.08 268.448 379.74 268.24 C 379.57 268.108 379.418 267.938 379.324 267.749 C 379.229 267.56 379.173 267.352 379.154 267.125 C 379.154 266.993 379.116 266.879 379.078 266.766 C 379.022 266.652 378.946 266.539 378.851 266.463 C 378.757 266.369 378.644 266.312 378.53 266.274 C 378.417 266.237 378.284 266.218 378.152 266.218 C 377.661 266.237 377.151 266.652 377.151 267.503 C 377.151 269.015 378.644 270.13 379.74 270.338 L 379.683 270.64 Z" fill="#FF6632" stroke="#FF6633" stroke-width="0.396758" style="stroke-width: 0.397;"/>
        <path d="M 377.169 270.432 C 376.564 270.016 376.092 269.392 375.846 268.693 C 375.6 267.994 375.582 267.219 375.789 266.501 C 376.13 265.386 376.999 264.706 378.058 264.706 C 379.985 264.706 380.684 266.161 380.684 267.427 L 380.363 267.427 C 380.363 267.03 380.25 265.027 378.058 265.027 C 377.113 265.027 376.395 265.613 376.092 266.614 C 375.903 267.257 375.922 267.956 376.13 268.599 C 376.356 269.241 376.773 269.79 377.34 270.186 L 377.169 270.432 Z" fill="#FF6632" stroke="#FF6633" stroke-width="0.396758" style="stroke-width: 0.397;"/>
        <path d="M 380.835 269.714 C 380.061 269.733 379.305 269.469 378.738 268.958 C 378.492 268.713 378.303 268.429 378.19 268.126 C 378.058 267.805 378.001 267.465 378.02 267.144 L 378.341 267.144 C 378.322 267.446 378.379 267.729 378.492 268.013 C 378.605 268.297 378.757 268.542 378.983 268.75 C 379.267 268.996 379.588 269.185 379.948 269.298 C 380.306 269.412 380.666 269.449 381.044 269.431 L 381.044 269.752 L 380.835 269.714 Z" fill="#FF6632" stroke="#FF6633" stroke-width="0.396758" style="stroke-width: 0.397;"/>
    </g>
</svg>