<svg width="740" height="420" viewBox="0 0 740 420" fill="none" xmlns="http://www.w3.org/2000/svg">
<path d="M487.591 133.949V311.621" stroke="#FEEFD9" stroke-width="3.17406" stroke-dasharray="7.14 7.14"/>
<path d="M244.905 136.21V313.881" stroke="#FBAD41" stroke-width="3.17406" stroke-dasharray="7.14 7.14"/>
<path d="M296.565 173.198C296.565 144.159 270.869 124.905 250.51 124.905C228.607 124.905 207.382 138.536 201.895 159.986C182.48 156.235 162 171.866 162 194.646C162 216.187 180.564 229.667 192.854 229.667H303.75C317.556 229.667 330.071 216.395 330.071 202.659C330.068 182.991 315.541 170.739 296.565 173.198Z" fill="url(#paint0_linear_1308_11941)"/>
<path d="M543.682 166.642C543.682 136.107 516.648 115.861 495.229 115.861C472.186 115.861 449.855 130.194 444.083 152.749C423.657 148.805 402.111 165.241 402.111 189.195C402.111 211.845 421.642 226.02 434.571 226.02H551.241C565.765 226.02 578.932 212.064 578.932 197.62C578.929 176.939 563.646 164.056 543.682 166.642Z" fill="#FEEFD9"/>
<path fill-rule="evenodd" clip-rule="evenodd" d="M272.049 204.512H271.823C244.463 204.512 222.294 182.34 222.294 155.001C222.294 127.662 244.475 105.489 271.823 105.489C274.853 105.489 277.834 105.763 280.709 106.285C285.319 70.0275 316.303 42 353.82 42C386.241 42 413.768 62.9138 423.628 91.9864C428.654 90.0031 434.119 88.9105 439.845 88.9105C464.188 88.9105 483.932 108.637 483.932 132.983C483.932 137.02 483.386 140.928 482.376 144.633C484.55 144.134 486.819 143.873 489.148 143.873C505.899 143.873 519.478 157.447 519.478 174.193C519.478 190.938 505.899 204.512 489.148 204.512C488.982 204.512 488.827 204.512 488.673 204.512H272.049Z" fill="white" stroke="url(#paint1_linear_1308_11941)" stroke-width="2.38055" stroke-miterlimit="10"/>
<path d="M518.435 283.932H457.557C455.86 283.932 454.485 285.307 454.485 287.003V373.84C454.485 375.536 455.86 376.911 457.557 376.911H518.435C520.131 376.911 521.506 375.536 521.506 373.84V287.003C521.506 285.307 520.131 283.932 518.435 283.932Z" fill="#FEEFD9" stroke="#CD2F55" stroke-width="1.58703" stroke-miterlimit="10"/>
<path d="M518.613 291.739H457.38V371.803H518.613V291.739Z" fill="white"/>
<path d="M493.262 287.722H485.791C485.481 287.722 485.229 287.973 485.229 288.283C485.229 288.593 485.481 288.844 485.791 288.844H493.262C493.572 288.844 493.823 288.593 493.823 288.283C493.823 287.973 493.572 287.722 493.262 287.722Z" fill="#CD2F55"/>
<path d="M483.117 289.232C483.641 289.232 484.066 288.807 484.066 288.283C484.066 287.759 483.641 287.334 483.117 287.334C482.593 287.334 482.168 287.759 482.168 288.283C482.168 288.807 482.593 289.232 483.117 289.232Z" fill="#CD2F55"/>
<path d="M518.433 291.469H457.443V372.113H518.492V291.469H518.433Z" fill="url(#paint2_linear_1308_11941)"/>
<path d="M510.956 300.513H473.272V303.527H510.956V300.513Z" fill="#FEEFD9" fill-opacity="0.75"/>
<path d="M504.172 308.803H465.734V311.817H504.172V308.803Z" fill="#FEEFD9" fill-opacity="0.75"/>
<path d="M510.955 317.094H481.561V320.108H510.955V317.094Z" fill="#FEEFD9" fill-opacity="0.75"/>
<path d="M500.907 325.384H473.272V328.399H500.907V325.384Z" fill="#FEEFD9" fill-opacity="0.75"/>
<path d="M510.955 333.675H465.734V336.69H510.955V333.675Z" fill="#FEEFD9" fill-opacity="0.75"/>
<path d="M506.433 341.965H481.561V344.98H506.433V341.965Z" fill="#FEEFD9" fill-opacity="0.75"/>
<path d="M510.956 350.256H473.272V353.271H510.956V350.256Z" fill="#FEEFD9" fill-opacity="0.75"/>
<path d="M470.257 300.513H465.734V303.527H470.257V300.513Z" fill="#FEEFD9" fill-opacity="0.75"/>
<path d="M470.257 325.384H465.734V328.399H470.257V325.384Z" fill="#FEEFD9" fill-opacity="0.75"/>
<path d="M470.257 350.256H465.734V353.271H470.257V350.256Z" fill="#FEEFD9" fill-opacity="0.75"/>
<path d="M478.547 317.094H465.734V320.108H478.547V317.094Z" fill="#FEEFD9" fill-opacity="0.75"/>
<path d="M478.547 341.965H465.734V344.98H478.547V341.965Z" fill="#FEEFD9" fill-opacity="0.75"/>
<path d="M262.106 304.281H227.621C226.296 304.281 225.221 305.356 225.221 306.682V374.548C225.221 375.874 226.296 376.949 227.621 376.949H262.106C263.431 376.949 264.506 375.874 264.506 374.548V306.682C264.506 305.356 263.431 304.281 262.106 304.281Z" fill="#FEEFD9"/>
<path d="M227.621 305.075H262.106V303.488H227.621V305.075ZM262.106 305.075C262.993 305.075 263.713 305.794 263.713 306.682H265.3C265.3 304.918 263.87 303.488 262.106 303.488V305.075ZM263.713 306.682V374.548H265.3V306.682H263.713ZM263.713 374.548C263.713 375.436 262.993 376.155 262.106 376.155V377.742C263.87 377.742 265.3 376.312 265.3 374.548H263.713ZM262.106 376.155H227.621V377.742H262.106V376.155ZM227.621 376.155C226.734 376.155 226.015 375.436 226.015 374.548H224.428C224.428 376.312 225.858 377.742 227.621 377.742V376.155ZM226.015 374.548V306.682H224.428V374.548H226.015ZM226.015 306.682C226.015 305.794 226.734 305.075 227.621 305.075V303.488C225.858 303.488 224.428 304.918 224.428 306.682H226.015Z" fill="#CD2F55"/>
<path d="M247.75 307.651H241.282C241.013 307.651 240.796 307.869 240.796 308.137C240.796 308.406 241.013 308.623 241.282 308.623H247.75C248.018 308.623 248.236 308.406 248.236 308.137C248.236 307.869 248.018 307.651 247.75 307.651Z" fill="#CD2F55"/>
<path d="M229.399 309.369C230.102 309.369 230.671 308.799 230.671 308.097C230.671 307.395 230.102 306.825 229.399 306.825C228.697 306.825 228.128 307.395 228.128 308.097C228.128 308.799 228.697 309.369 229.399 309.369Z" fill="#CD2F55"/>
<path d="M261.455 311.078H228.325V373.634H261.487V311.078H261.455Z" fill="url(#paint3_linear_1308_11941)"/>
<circle cx="355.671" cy="201.318" r="60.6714" fill="#E0EDFF"/>
<path d="M356.048 249.93C382.688 249.93 404.284 228.335 404.284 201.695C404.284 175.055 382.688 153.459 356.048 153.459C329.408 153.459 307.812 175.055 307.812 201.695C307.812 228.335 329.408 249.93 356.048 249.93Z" fill="white" stroke="url(#paint4_linear_1308_11941)" stroke-width="2.38055" stroke-miterlimit="10"/>
<rect x="342.845" y="119" width="29" height="101" fill="white"/>
<path d="M389.964 199.482L356.802 231.899M356.802 231.899L323.64 199.482M356.802 231.899L356.802 197.148L356.802 151.632M356.802 140.704L356.802 124.133M356.802 113.571L356.802 97" stroke="url(#paint5_linear_1308_11941)" stroke-width="11.5774"/>
<path fill-rule="evenodd" clip-rule="evenodd" d="M434.95 262.062H283.111C281.095 262.068 279.161 262.867 277.729 264.287C276.297 265.707 275.481 267.634 275.458 269.651V369.521H442.604V269.651C442.583 267.633 441.767 265.705 440.335 264.285C438.902 262.864 436.968 262.066 434.95 262.062Z" fill="white" stroke="#CD2F55" stroke-width="1.58703" stroke-miterlimit="10"/>
<path d="M435.585 274H282.192V363.392H435.585V274Z" fill="white"/>
<path d="M359.03 269.518C359.771 269.518 360.372 268.917 360.372 268.176C360.372 267.435 359.771 266.834 359.03 266.834C358.289 266.834 357.688 267.435 357.688 268.176C357.688 268.917 358.289 269.518 359.03 269.518Z" fill="#CD2F55"/>
<path fill-rule="evenodd" clip-rule="evenodd" d="M449.368 377.233H268.898C259.517 377.233 253.198 375.795 253.198 374.426V370.263C253.223 370.044 253.333 369.843 253.504 369.704C253.676 369.566 253.895 369.499 254.115 369.52H464.151C464.371 369.499 464.59 369.565 464.762 369.704C464.934 369.843 465.044 370.044 465.069 370.263V374.419C465.067 375.502 460.174 377.233 449.368 377.233Z" fill="white" stroke="#CD2F55" stroke-width="1.58703" stroke-miterlimit="10"/>
<path d="M253.56 370.236V374.42H464.682V370.236C464.682 370.143 464.646 370.055 464.581 369.99C464.515 369.924 464.427 369.888 464.334 369.888H253.909C253.816 369.888 253.728 369.924 253.662 369.99C253.597 370.055 253.56 370.143 253.56 370.236Z" fill="#FEEFD9"/>
<path fill-rule="evenodd" clip-rule="evenodd" d="M381.989 369.888V370.764C381.989 371.438 380.663 371.641 379.659 371.641H338.463C337.406 371.641 336.07 371.438 336.07 370.764V369.888H381.989Z" fill="#CD2F55"/>
<path d="M287.616 278.646C288.26 278.646 288.782 278.124 288.782 277.48C288.782 276.836 288.26 276.314 287.616 276.314C286.972 276.314 286.45 276.836 286.45 277.48C286.45 278.124 286.972 278.646 287.616 278.646Z" fill="white"/>
<path d="M291.387 278.646C292.031 278.646 292.553 278.124 292.553 277.48C292.553 276.836 292.031 276.314 291.387 276.314C290.743 276.314 290.221 276.836 290.221 277.48C290.221 278.124 290.743 278.646 291.387 278.646Z" fill="white"/>
<path d="M295.158 278.646C295.802 278.646 296.324 278.124 296.324 277.48C296.324 276.836 295.802 276.314 295.158 276.314C294.514 276.314 293.992 276.836 293.992 277.48C293.992 278.124 294.514 278.646 295.158 278.646Z" fill="white"/>
<path d="M435.586 274.135H283.342V362.862H435.586V274.135Z" fill="url(#paint6_linear_1308_11941)" stroke="#CD2F55" stroke-width="1.65685" stroke-miterlimit="10"/>
<path d="M435.179 274.543H283.547V281.07H435.219V274.543H435.179Z" fill="#FF6632" stroke="#CD2F55" stroke-width="1.65685" stroke-miterlimit="10"/>
<path d="M288.768 278.744C289.421 278.744 289.91 278.214 289.91 277.602C289.91 276.99 289.38 276.46 288.768 276.46C288.156 276.46 287.626 276.99 287.626 277.602C287.626 278.214 288.116 278.744 288.768 278.744Z" fill="white"/>
<path d="M292.481 278.744C293.134 278.744 293.623 278.214 293.623 277.602C293.623 276.99 293.093 276.46 292.481 276.46C291.828 276.46 291.339 276.99 291.339 277.602C291.339 278.214 291.869 278.744 292.481 278.744Z" fill="white"/>
<path d="M296.234 278.744C296.887 278.744 297.376 278.214 297.376 277.602C297.376 276.99 296.846 276.46 296.234 276.46C295.581 276.46 295.092 276.99 295.092 277.602C295.092 278.214 295.581 278.744 296.234 278.744Z" fill="white"/>
<mask id="mask0_1308_11941" style="mask-type:alpha" maskUnits="userSpaceOnUse" x="299" y="292" width="126" height="58">
<path d="M311.425 292.223H300.004V296.782H311.425V292.223Z" fill="#E9F7FB"/>
<path d="M311.424 305.154H300.003V309.713H311.424V305.154Z" fill="#E9F7FB"/>
<path d="M311.601 318.086H300.003V322.645H311.601V318.086Z" fill="#E9F7FB"/>
<path d="M311.601 331.018H300.003V335.576H311.601V331.018Z" fill="#E9F7FB"/>
<path d="M311.464 344.846H299.924V349.405H311.464V344.846Z" fill="#E9F7FB"/>
<path d="M391.901 292.223H321.654V296.585H391.901V292.223Z" fill="#E9F7FB"/>
<path d="M350.699 305.154H321.655V309.516H350.699V305.154Z" fill="#E9F7FB"/>
<path d="M339.216 318.086H321.655V322.448H339.216V318.086Z" fill="#E9F7FB"/>
<path d="M424.256 305.154H350.632V309.516H424.256V305.154Z" fill="#E9F7FB"/>
<path d="M399.717 318.086H343.716V322.448H399.717V318.086Z" fill="#E9F7FB"/>
<path d="M415.34 318.086H403.461V322.448H415.34V318.086Z" fill="#E9F7FB"/>
<path d="M350.699 331.238H321.655V335.6H350.699V331.238Z" fill="#E9F7FB"/>
<path d="M369.955 331.238H355.687V335.6H369.955V331.238Z" fill="#E9F7FB"/>
<path d="M412.267 331.29H374.237V335.601H412.267V331.29Z" fill="#E9F7FB"/>
<path d="M377.597 343.949H321.466V348.26H377.597V343.949Z" fill="#E9F7FB"/>
<path d="M409.515 343.949H383.1V348.26H409.515V343.949Z" fill="#E9F7FB"/>
</mask>
<g mask="url(#mask0_1308_11941)">
<rect x="298.049" y="288.827" width="124.274" height="64.1866" fill="#E9F7FB"/>
</g>
<path d="M245.283 355.387C252.889 355.387 259.067 349.209 259.067 341.603C259.067 333.996 252.889 327.818 245.283 327.818C237.676 327.818 231.498 333.996 231.498 341.603C231.498 349.209 237.676 355.387 245.283 355.387Z" fill="white" stroke="#FF6633" stroke-width="1.19027"/>
<path d="M239.737 334.953L239.427 334.47C242.463 332.537 247.397 332.537 250.398 334.47L250.088 334.953C247.224 333.09 242.601 333.09 239.737 334.953Z" fill="#FF6632" stroke="#FF6633" stroke-width="0.396758"/>
<path d="M237.632 339.334L237.149 339.024C238.012 337.747 239.185 336.712 240.53 336.022C241.876 335.297 243.394 334.918 244.947 334.918C246.499 334.918 247.983 335.297 249.363 336.022C250.709 336.747 251.882 337.782 252.744 339.024L252.261 339.334C251.433 338.161 250.329 337.195 249.052 336.54C247.776 335.884 246.327 335.539 244.878 335.539C243.463 335.574 242.049 335.919 240.806 336.574C239.53 337.23 238.46 338.161 237.632 339.334Z" fill="#FF6632" stroke="#FF6633" stroke-width="0.396758"/>
<path d="M247.5 349.72C246.189 349.41 245.016 348.754 244.085 347.823C243.533 347.339 243.119 346.718 242.808 346.063C242.498 345.407 242.36 344.683 242.325 343.958C242.325 342.061 243.567 341.095 244.706 341.026C245.016 340.991 245.327 341.06 245.603 341.164C245.879 341.267 246.155 341.405 246.362 341.612C246.603 341.819 246.776 342.061 246.914 342.337C247.052 342.613 247.121 342.923 247.121 343.199C247.121 343.51 247.224 343.82 247.362 344.096C247.5 344.372 247.707 344.614 247.949 344.821C248.466 345.131 249.053 345.2 249.605 345.097H249.639C249.708 345.097 251.123 344.924 250.985 342.854C250.882 341.336 250.157 339.922 249.018 338.921C247.88 337.92 246.396 337.403 244.878 337.472C243.843 337.437 242.843 337.679 241.911 338.127C240.979 338.61 240.22 339.3 239.634 340.129C239.013 341.095 238.633 342.199 238.53 343.372C238.426 344.51 238.599 345.683 239.047 346.753L238.495 346.96C238.012 345.821 237.84 344.545 237.943 343.303C238.047 342.061 238.461 340.853 239.151 339.818C239.772 338.886 240.634 338.127 241.635 337.61C242.636 337.092 243.74 336.851 244.878 336.885C246.534 336.816 248.156 337.403 249.398 338.507C250.64 339.611 251.399 341.164 251.537 342.82C251.675 345.304 249.95 345.649 249.708 345.683C248.984 345.856 248.225 345.718 247.604 345.338C247.293 345.097 247.017 344.786 246.845 344.441C246.672 344.096 246.569 343.717 246.534 343.303C246.534 343.061 246.465 342.854 246.396 342.647C246.293 342.44 246.155 342.233 245.982 342.095C245.81 341.923 245.603 341.819 245.396 341.75C245.189 341.681 244.947 341.647 244.706 341.647C243.809 341.681 242.877 342.44 242.877 343.993C242.877 346.753 245.603 348.789 247.604 349.168L247.5 349.72Z" fill="#FF6632" stroke="#FF6633" stroke-width="0.396758"/>
<path d="M242.911 349.34C241.807 348.581 240.944 347.442 240.496 346.166C240.047 344.889 240.013 343.475 240.392 342.163C241.013 340.128 242.601 338.886 244.533 338.886C248.052 338.886 249.328 341.542 249.328 343.854H248.742C248.742 343.129 248.535 339.472 244.533 339.472C242.808 339.472 241.497 340.542 240.944 342.37C240.599 343.544 240.634 344.82 241.013 345.993C241.427 347.166 242.187 348.167 243.222 348.891L242.911 349.34Z" fill="#FF6632" stroke="#FF6633" stroke-width="0.396758"/>
<path d="M249.604 348.029C248.19 348.064 246.81 347.581 245.775 346.649C245.326 346.201 244.981 345.683 244.774 345.131C244.533 344.544 244.429 343.923 244.464 343.337H245.05C245.016 343.889 245.119 344.406 245.326 344.924C245.533 345.442 245.809 345.89 246.223 346.27C246.741 346.718 247.327 347.063 247.983 347.27C248.638 347.477 249.294 347.546 249.984 347.512V348.098L249.604 348.029Z" fill="#FF6632" stroke="#FF6633" stroke-width="0.396758"/>
<defs>
<linearGradient id="paint0_linear_1308_11941" x1="211.607" y1="256.123" x2="302.818" y2="144.495" gradientUnits="userSpaceOnUse">
<stop stop-color="#CE2F55"/>
<stop offset="0.317708" stop-color="#FF6633"/>
<stop offset="0.666667" stop-color="#F6821F"/>
<stop offset="1" stop-color="#FBAD41"/>
</linearGradient>
<linearGradient id="paint1_linear_1308_11941" x1="212.077" y1="155.357" x2="504.924" y2="137.531" gradientUnits="userSpaceOnUse">
<stop stop-color="#911476"/>
<stop offset="0.510417" stop-color="#D63851"/>
<stop offset="1" stop-color="#FD6436"/>
</linearGradient>
<linearGradient id="paint2_linear_1308_11941" x1="457.208" y1="291.576" x2="496.526" y2="381.694" gradientUnits="userSpaceOnUse">
<stop offset="0.3897" stop-color="#F9AB41"/>
<stop offset="1" stop-color="#F6821F"/>
</linearGradient>
<linearGradient id="paint3_linear_1308_11941" x1="228.197" y1="311.162" x2="265.543" y2="371.105" gradientUnits="userSpaceOnUse">
<stop offset="0.3897" stop-color="#F9AB41"/>
<stop offset="1" stop-color="#F6821F"/>
</linearGradient>
<linearGradient id="paint4_linear_1308_11941" x1="308.611" y1="201.695" x2="404.284" y2="201.695" gradientUnits="userSpaceOnUse">
<stop stop-color="#CE2F55"/>
<stop offset="0.284123" stop-color="#FF6633"/>
<stop offset="0.706007" stop-color="#F6821F"/>
<stop offset="1" stop-color="#FBAD41"/>
</linearGradient>
<linearGradient id="paint5_linear_1308_11941" x1="356.802" y1="187.581" x2="356.802" y2="249.809" gradientUnits="userSpaceOnUse">
<stop stop-color="#FBAD41"/>
<stop offset="0.681992" stop-color="#F6821F"/>
<stop offset="0.980124" stop-color="#FF6633"/>
</linearGradient>
<linearGradient id="paint6_linear_1308_11941" x1="321.237" y1="384.735" x2="397.713" y2="252.273" gradientUnits="userSpaceOnUse">
<stop stop-color="#CE2F55"/>
<stop offset="0.4605" stop-color="#FF6633"/>
<stop offset="0.8859" stop-color="#FBAD41"/>
</linearGradient>
</defs>
</svg>
