<?xml version="1.0" encoding="UTF-8"?>
<svg version="1.1" xmlns="http://www.w3.org/2000/svg" width="3000" height="2000">
<path d="M0 0 C1.09803955 0.44182617 1.09803955 0.44182617 2.21826172 0.89257812 C32.76019684 13.35977315 60.74368311 32.6747755 84 56 C85.05334596 57.02091722 86.10811663 58.04036587 87.1640625 59.05859375 C94.65380119 66.3367762 101.42971761 73.82919091 107.66455078 82.20703125 C109.03282873 84.04407572 110.41985529 85.86588931 111.80859375 87.6875 C118.17535939 96.11300006 123.85733934 104.77818661 129 114 C129.4655127 114.82999512 129.93102539 115.65999023 130.41064453 116.51513672 C140.65869266 134.9656278 148.04352651 153.92031971 154.0625 174.125 C154.36196533 175.126521 154.66143066 176.12804199 154.9699707 177.15991211 C156.32113342 181.88028142 157.39279813 186.03570018 157 191 C158.19625 191.37125 159.3925 191.7425 160.625 192.125 C163.59646806 193.08309017 166.31143611 194.15337643 169.1171875 195.53515625 C176.33022406 199.05838311 181.65885803 200.4717666 189.84887695 200.17358398 C215.3894414 199.25408992 240.87165146 203.87169203 265 212 C265.71381836 212.23976563 266.42763672 212.47953125 267.16308594 212.7265625 C286.80225473 219.44206972 306.4416301 229.46040498 323 242 C323.51739746 242.38881348 324.03479492 242.77762695 324.56787109 243.17822266 C338.65688595 253.81504304 353.29955248 265.85199189 364 280 C364 280.66 364 281.32 364 282 C364.66 282 365.32 282 366 282 C367.27758789 283.50610352 367.27758789 283.50610352 368.72265625 285.62890625 C369.25697266 286.40959473 369.79128906 287.1902832 370.34179688 287.99462891 C371.19354492 289.2657251 371.19354492 289.2657251 372.0625 290.5625 C372.93551758 291.85293213 372.93551758 291.85293213 373.82617188 293.16943359 C378.8294913 300.6233866 383.51586923 308.22502065 388 316 C388.54785156 316.93070313 389.09570312 317.86140625 389.66015625 318.8203125 C393 324.60689415 393 324.60689415 393 328 C393.66 328.33 394.32 328.66 395 329 C396.00561523 331.18969727 396.00561523 331.18969727 397.05859375 334.06640625 C397.44466797 335.10990234 397.83074219 336.15339844 398.22851562 337.22851562 C398.62748047 338.32873047 399.02644531 339.42894531 399.4375 340.5625 C399.83259766 341.63564453 400.22769531 342.70878906 400.63476562 343.81445312 C401.41168872 345.92546048 402.183818 348.03823887 402.95092773 350.15283203 C403.80262815 352.46433547 404.70349064 354.74351325 405.625 357.02734375 C407.56551755 362.19602451 408.513814 367.59447026 409.5625 373 C409.77068359 374.02222656 409.97886719 375.04445313 410.19335938 376.09765625 C413.01654417 390.38173232 414.3189706 404.43264005 414.63305664 418.96020508 C414.68859882 421.48749873 414.75858757 424.01412731 414.83007812 426.54101562 C414.87062153 428.15102098 414.91036709 429.76104668 414.94921875 431.37109375 C414.96997971 432.12506943 414.99074066 432.8790451 415.01213074 433.65586853 C415.04738931 435.43690131 415.02924721 437.21885836 415 439 C414.67 439.33 414.34 439.66 414 440 C413.76298761 442.85877909 413.57780818 445.69883297 413.4375 448.5625 C413.37272461 449.77196289 413.37272461 449.77196289 413.30664062 451.00585938 C413.20024738 453.00368805 413.09959112 455.0018207 413 457 C412.34 457 411.68 457 411 457 C411.309375 457.7734375 411.309375 457.7734375 411.625 458.5625 C412.0537998 461.3496987 411.45789327 463.22983197 410.59765625 465.87890625 C409.88706068 468.40082384 409.51931645 470.91030006 409.125 473.5 C408.20039433 478.75147128 406.95274726 483.92348317 402.33877647 487.16825394 C399.05525186 488.3359836 395.89494576 488.27105957 392.45457649 488.24543697 C391.30184828 488.24878862 391.30184828 488.24878862 390.12583262 488.25220799 C387.53042641 488.25728094 384.93526664 488.24799021 382.33987427 488.23885822 C380.4604515 488.23953932 378.58102888 488.24109798 376.70160747 488.24345854 C371.5019108 488.24740826 366.30229748 488.23877168 361.10261282 488.22819726 C355.45907584 488.21889951 349.81554192 488.22114687 344.17199898 488.22195071 C334.26933998 488.22173755 324.36670859 488.21400142 314.46405792 488.20141029 C303.8357566 488.18790661 293.20746347 488.17862267 282.57915497 488.17469406 C281.9085072 488.17444295 281.23785943 488.17419183 280.546889 488.17393311 C277.81556202 488.17292391 275.08423504 488.17194432 272.35290805 488.17100262 C244.60589599 488.16141769 216.85890499 488.13882628 189.11190581 488.11109586 C185.27598684 488.1072651 181.44006786 488.10345077 177.60414886 488.09965348 C176.84228348 488.09889886 176.0804181 488.09814424 175.29546588 488.09736674 C158.42401936 488.08073679 141.55257057 488.06798646 124.68112018 488.05602334 C120.83073859 488.05329177 116.98035701 488.05053417 113.12997544 488.04778146 C111.58471006 488.04667761 110.03944468 488.04557395 108.4941793 488.04447048 C107.72822952 488.04392347 106.96227974 488.04337646 106.17311937 488.04281288 C104.62384447 488.04170724 103.07456957 488.04060276 101.52529467 488.03949944 C57.55424187 488.00818081 13.58319387 487.97282252 -30.3878479 487.92854786 C-31.20238274 487.92772861 -32.01691758 487.92690935 -32.85613529 487.92606528 C-41.93946369 487.91692693 -51.02279203 487.90773194 -60.10612035 487.89851753 C-60.92624177 487.8976857 -61.74636319 487.89685388 -62.59133677 487.89599684 C-69.40280047 487.88908788 -69.40280047 487.88908788 -72.54127407 487.88590009 C-125.0099335 487.83261633 -177.47858725 487.79241243 -229.94726562 487.76342773 C-243.16889451 487.75611795 -256.39052337 487.74876669 -269.6121521 487.74116993 C-270.42620303 487.7407025 -271.24025396 487.74023507 -272.0789731 487.73975347 C-297.15760211 487.72530079 -322.23622631 487.70716751 -347.31484985 487.68518353 C-348.49541645 487.68414917 -348.49541645 487.68414917 -349.69983288 487.68309393 C-366.97498767 487.66792034 -384.25014151 487.65183461 -401.52529467 487.63491373 C-407.70618978 487.6288662 -413.88708495 487.62287905 -420.06798015 487.61691823 C-421.6056935 487.61543422 -423.14340684 487.61394658 -424.68112018 487.61245529 C-449.20966465 487.58869369 -473.73820503 487.57350689 -498.26675824 487.56249138 C-523.64812897 487.55101707 -549.02946836 487.52851746 -574.41081762 487.49336074 C-577.13359668 487.48963265 -579.8563758 487.48595291 -582.57915497 487.48231125 C-583.58151192 487.48096419 -583.58151192 487.48096419 -584.60411851 487.47958992 C-595.85153934 487.46476278 -607.09894487 487.4618158 -618.34637537 487.46195712 C-628.11343306 487.46125712 -637.88043865 487.44978161 -647.64747486 487.42932422 C-653.22263998 487.41795551 -658.79769962 487.41144713 -664.37287498 487.41796193 C-669.43635545 487.42378264 -674.49961928 487.41602379 -679.56306586 487.39704198 C-681.39150023 487.39263388 -683.2199552 487.39333702 -685.04838434 487.39954798 C-687.51738038 487.40721607 -689.98563235 487.39665659 -692.45457649 487.38130885 C-693.16924705 487.38793996 -693.88391761 487.39457107 -694.62024485 487.40140312 C-697.65213196 487.36510726 -699.72999904 487.14965136 -702.40396202 485.66757445 C-704.82028998 483.14294357 -705.25947777 480.33667264 -705.8125 477 C-705.9973999 475.90522339 -705.9973999 475.90522339 -706.18603516 474.78833008 C-710.33573778 445.68401378 -704.05150719 412.64165837 -692 386 C-691.57726807 385.05592285 -691.57726807 385.05592285 -691.14599609 384.09277344 C-683.368371 366.99144648 -672.73668018 351.76541205 -660 338 C-658.77023437 336.66388672 -658.77023437 336.66388672 -657.515625 335.30078125 C-650.93052418 328.44668121 -643.63748682 322.62322696 -636 317 C-635.4215332 316.57187012 -634.84306641 316.14374023 -634.24707031 315.70263672 C-607.24600623 296.00141113 -575.86103983 287.63165335 -543 285 C-543.144375 284.03964844 -543.28875 283.07929687 -543.4375 282.08984375 C-548.28381755 247.4246728 -543.29573036 212.8687738 -521.93530273 184.25415039 C-507.01180841 165.18509354 -487.99575919 150.52567208 -465 142.6875 C-464.32541748 142.45699951 -463.65083496 142.22649902 -462.95581055 141.98901367 C-450.66343475 138.06174167 -438.61792089 136.46030283 -425.75 136.5625 C-424.7431868 136.56706207 -424.7431868 136.56706207 -423.71603394 136.57171631 C-412.41928484 136.64702462 -401.8068285 137.6294392 -391 141 C-390.3095459 141.21430664 -389.6190918 141.42861328 -388.90771484 141.64941406 C-376.08495606 145.77842052 -364.63825416 152.32838934 -353 159 C-352.62681641 157.05867188 -352.62681641 157.05867188 -352.24609375 155.078125 C-351.1084785 149.98717255 -349.25372824 145.46879784 -347.0625 140.75 C-346.6698999 139.89446533 -346.2772998 139.03893066 -345.87280273 138.1574707 C-338.70664017 122.73851362 -330.96096488 107.80670004 -321 94 C-320.27828613 92.99646484 -320.27828613 92.99646484 -319.54199219 91.97265625 C-313.4490271 83.55613599 -307.08561179 75.61047192 -300 68 C-298.8705773 66.69130385 -297.74541241 65.37891836 -296.625 64.0625 C-288.82078047 55.14339196 -280.30078763 47.32638812 -271 40 C-269.92991843 39.12891838 -268.86094884 38.25646935 -267.79296875 37.3828125 C-227.87450892 4.99351893 -178.88892293 -13.57155986 -128 -19 C-126.80117187 -19.13148438 -125.60234375 -19.26296875 -124.3671875 -19.3984375 C-82.00895726 -23.17495441 -39.29509639 -15.9218101 0 0 Z " fill="#F28020" transform="translate(2240,628)"/>
<path d="M0 0 C4.19472403 1.30181091 8.17026556 2.59137139 12.1171875 4.53515625 C19.33022406 8.05838311 24.65885803 9.4717666 32.84887695 9.17358398 C58.3894414 8.25408992 83.87165146 12.87169203 108 21 C108.71381836 21.23976563 109.42763672 21.47953125 110.16308594 21.7265625 C129.80225473 28.44206972 149.4416301 38.46040498 166 51 C166.51739746 51.38881348 167.03479492 51.77762695 167.56787109 52.17822266 C181.65688595 62.81504304 196.29955248 74.85199189 207 89 C207 89.66 207 90.32 207 91 C207.66 91 208.32 91 209 91 C210.27758789 92.50610352 210.27758789 92.50610352 211.72265625 94.62890625 C212.25697266 95.40959473 212.79128906 96.1902832 213.34179688 96.99462891 C213.90962891 97.84202637 214.47746094 98.68942383 215.0625 99.5625 C215.93551758 100.85293213 215.93551758 100.85293213 216.82617188 102.16943359 C221.8294913 109.6233866 226.51586923 117.22502065 231 125 C231.54785156 125.93070313 232.09570312 126.86140625 232.66015625 127.8203125 C236 133.60689415 236 133.60689415 236 137 C236.66 137.33 237.32 137.66 238 138 C239.00561523 140.18969727 239.00561523 140.18969727 240.05859375 143.06640625 C240.44466797 144.10990234 240.83074219 145.15339844 241.22851562 146.22851562 C241.62748047 147.32873047 242.02644531 148.42894531 242.4375 149.5625 C242.83259766 150.63564453 243.22769531 151.70878906 243.63476562 152.81445312 C244.41168872 154.92546048 245.183818 157.03823887 245.95092773 159.15283203 C246.80262815 161.46433547 247.70349064 163.74351325 248.625 166.02734375 C250.56551755 171.19602451 251.513814 176.59447026 252.5625 182 C252.77068359 183.02222656 252.97886719 184.04445313 253.19335938 185.09765625 C256.01654417 199.38173232 257.3189706 213.43264005 257.63305664 227.96020508 C257.68859882 230.48749873 257.75858757 233.01412731 257.83007812 235.54101562 C257.87062153 237.15102098 257.91036709 238.76104668 257.94921875 240.37109375 C257.96997971 241.12506943 257.99074066 241.8790451 258.01213074 242.65586853 C258.04738931 244.43690131 258.02924721 246.21885836 258 248 C257.67 248.33 257.34 248.66 257 249 C256.76298761 251.85877909 256.57780818 254.69883297 256.4375 257.5625 C256.37272461 258.77196289 256.37272461 258.77196289 256.30664062 260.00585938 C256.20024738 262.00368805 256.09959112 264.0018207 256 266 C255.34 266 254.68 266 254 266 C254.20625 266.515625 254.4125 267.03125 254.625 267.5625 C255.0537998 270.3496987 254.45789327 272.22983197 253.59765625 274.87890625 C252.88706068 277.40082384 252.51931645 279.91030006 252.125 282.5 C251.24541508 287.49576745 249.9775442 290.88398301 247 295 C243.71590411 297.17752057 240.974411 297.24449643 237.08858109 297.23047829 C235.87187863 297.23097699 234.65517617 297.23147569 233.40160394 297.2319895 C232.04957467 297.22235422 230.69754673 297.21253274 229.34552002 297.20254517 C227.91076377 297.19928738 226.47600528 297.19691347 225.04124618 297.1953491 C221.09387027 297.18847921 217.14664002 297.16903857 213.19932008 297.14758825 C208.94442951 297.12665383 204.68951188 297.1173162 200.43458557 297.10658264 C193.06105469 297.08638892 185.68758081 297.05881912 178.31409454 297.02626419 C167.65322621 296.97920565 156.99234325 296.94323285 146.33142397 296.90998094 C129.03553272 296.85573248 111.73968643 296.79249672 94.44384766 296.72363281 C77.6408023 296.65675017 60.83774996 296.59408548 44.03466797 296.53710938 C42.9992314 296.53359693 41.96379483 296.53008449 40.89698139 296.52646561 C35.70259143 296.5088711 30.5082012 296.49135969 25.31381083 296.47388959 C-17.79084312 296.3288098 -60.89543426 296.16915449 -104 296 C-103.36247803 295.22019775 -102.72495605 294.44039551 -102.06811523 293.63696289 C-96.83379486 286.96291091 -95.36450242 277.89962916 -93.3125 269.8125 C-92.99067749 268.54780884 -92.99067749 268.54780884 -92.66235352 267.25756836 C-88.20367914 249.11850625 -87.8895667 228.67169594 -97.09375 211.91015625 C-107.00132249 196.78486628 -120.32457258 188.75576309 -138 185 C-143.62847614 184.03950881 -149.09335743 183.81615375 -154.78442383 183.75048828 C-155.76353194 183.73558885 -156.74264006 183.72068941 -157.75141811 183.70533848 C-161.06990849 183.65599656 -164.38845135 183.61318021 -167.70703125 183.5703125 C-170.14850377 183.5355061 -172.58997092 183.50032196 -175.03143311 183.46479797 C-181.12506106 183.37723901 -187.21873568 183.29404052 -193.31244743 183.21260327 C-198.38621408 183.14463091 -203.45994546 183.07440643 -208.53366089 183.00271606 C-209.26680989 182.99235736 -209.9999589 182.98199866 -210.75532454 182.97132605 C-212.25830852 182.95008348 -213.76129247 182.92883867 -215.26427639 182.9075917 C-254.22221381 182.35779755 -293.18074922 181.85084056 -332.13918495 181.33789825 C-338.44864561 181.25482062 -344.75810462 181.17161794 -351.06756312 181.08837652 C-357.41377503 181.00466008 -363.75998795 180.9210195 -370.10620117 180.83740234 C-371.36615068 180.82079811 -372.62610018 180.80419388 -373.92422998 180.78708649 C-389.05105663 180.5878217 -404.17790456 180.39033066 -419.30479062 180.19562632 C-428.98391369 180.07100438 -438.66302016 179.94514357 -448.34211624 179.81844229 C-453.97575347 179.74476757 -459.60939691 179.67171605 -465.24306488 179.60042763 C-467.36376476 179.57351264 -469.48446433 179.54657292 -471.60516357 179.51960754 C-472.64115318 179.50645439 -473.67714279 179.49330124 -474.74452603 179.4797495 C-482.78260251 179.376178 -490.82030021 179.25299247 -498.85803115 179.12566775 C-505.28370927 179.02817004 -511.70878892 178.97074903 -518.13508731 178.9335143 C-522.60541455 178.90369538 -527.07540008 178.8541649 -531.5455054 178.8011018 C-533.67517562 178.78040719 -535.80494948 178.76836283 -537.93471825 178.76545799 C-540.87226794 178.76049172 -543.80800728 178.72520344 -546.745224 178.68299866 C-548.04634489 178.69215378 -548.04634489 178.69215378 -549.37375104 178.70149386 C-553.73126949 178.60678953 -555.48759679 178.39654933 -559.04326725 175.64481258 C-561 173 -561 173 -561.5625 170 C-560.77280633 165.78830044 -558.90737 163.32217482 -555.38969994 160.88375187 C-551.82463972 159.56533168 -548.26994931 159.65358754 -544.51480103 159.60997009 C-543.65343088 159.59246189 -542.79206073 159.57495368 -541.90458846 159.55691493 C-539.01932514 159.50097732 -536.13403986 159.45921495 -533.24853516 159.41772461 C-531.18125593 159.38126814 -529.11398828 159.34415083 -527.04673195 159.30641842 C-520.36469254 159.18873871 -513.68242573 159.0927381 -507 159 C-505.3640848 158.97672441 -505.3640848 158.97672441 -503.69512081 158.95297861 C-487.41908888 158.72198326 -471.14264343 158.53596603 -454.86595106 158.35868192 C-448.91637553 158.29322417 -442.96683155 158.22503274 -437.01728769 158.15676963 C-425.13865859 158.0205036 -413.26001228 157.88581722 -401.38134766 157.75268555 C-400.67817258 157.74480382 -399.97499751 157.7369221 -399.2505141 157.72880154 C-391.50986834 157.64207197 -383.76921868 157.55569715 -376.02856445 157.46972656 C-337.07381349 157.03707026 -298.11937319 156.58596345 -259.16549842 156.07990707 C-255.01768694 156.02604099 -250.86986925 155.97268958 -246.72204601 155.91973742 C-229.63856982 155.70147255 -212.55549401 155.46554546 -195.47261429 155.20445061 C-190.4019566 155.12741918 -185.33127454 155.05668443 -180.26044846 154.99170113 C-174.36974187 154.91590225 -168.47938538 154.82677947 -162.58903074 154.72740293 C-160.45177487 154.69350558 -158.31444019 154.66418535 -156.17705202 154.64002872 C-140.76363012 154.46157138 -126.02263051 153.4995687 -111.5 147.8125 C-110.71157715 147.51134277 -109.9231543 147.21018555 -109.11083984 146.89990234 C-96.03441912 141.78646769 -84.22013686 135.4479314 -73 127 C-72.10152344 126.32582031 -71.20304687 125.65164063 -70.27734375 124.95703125 C-42.19223452 102.91084094 -28.57612892 76.30051848 -16.3125 43.4375 C-15.39360578 41.00026334 -14.47368933 38.56341184 -13.55273438 36.12695312 C-11.39977248 30.42388986 -9.2585858 24.71652627 -7.12408447 19.00653076 C-5.80292465 15.47289273 -4.47794299 11.94069829 -3.15238953 8.40870667 C-2.10065505 5.60615559 -1.05025386 2.80310622 0 0 Z " fill="#F9AE40" transform="translate(2397,819)"/>
<path d="M0 0 C7.66795502 2.33937611 14.77137274 5.54768806 22 9 C21.70947754 9.7108374 21.41895508 10.4216748 21.11962891 11.15405273 C17.62102684 20.04703231 15.04320038 29.2032833 12.625 38.4375 C9.94469661 48.53648726 7.15749461 58.59755228 4.26171875 68.63671875 C4.04781494 69.39098145 3.83391113 70.14524414 3.61352539 70.92236328 C3.08063592 72.72693528 2.47249416 74.50895379 1.8515625 76.28515625 C0.59373126 81.7723008 0.6715235 87.13905301 0.6875 92.75 C0.67138672 93.86632812 0.65527344 94.98265625 0.63867188 96.1328125 C0.62933284 112.1585892 6.31757761 127.21742333 17.5546875 138.81640625 C34.18763038 153.66914598 55.08957563 154.7269642 76.25662231 155.75799561 C80.41252894 155.96330886 84.56753001 156.1857937 88.72265625 156.40625 C94.61015178 156.71857778 100.49780778 157.02591908 106.38623047 157.3203125 C111.86915931 157.59587154 117.35073381 157.89147755 122.83197021 158.1987915 C124.97944446 158.31592499 127.1272904 158.42643827 129.27545166 158.5302124 C132.30074061 158.67737909 135.32390692 158.84776459 138.34765625 159.0234375 C139.70303749 159.08138489 139.70303749 159.08138489 141.08580017 159.14050293 C146.18515704 159.46479414 149.43808122 159.97129115 153 164 C153.64274301 168.49920105 153.55856077 170.77648593 151.6875 174.875 C145.08667256 180.09425891 134.00783339 179.46836329 125.875 180 C124.69631348 180.08121094 123.51762695 180.16242188 122.30322266 180.24609375 C112.22306084 180.91356913 102.13557939 181.40063601 92.04473877 181.87445068 C46.18386384 184.03114165 6.25581095 188.79958718 -28.59765625 221.7734375 C-31 224 -31 224 -33.5390625 225.97265625 C-38.04771068 229.68692356 -41.41888078 234.41375992 -45 239 C-45.67417969 239.85851563 -46.34835937 240.71703125 -47.04296875 241.6015625 C-55.59992315 252.90835653 -61.83641367 264.97408507 -67.0625 278.125 C-67.45687256 279.10887695 -67.85124512 280.09275391 -68.25756836 281.10644531 C-70.08445136 285.86411509 -71.55026561 289.81178137 -71 295 C-70.34 295.33 -69.68 295.66 -69 296 C-80.55 296 -92.1 296 -104 296 C-102.68 294.35 -101.36 292.7 -100 291 C-96.70962831 284.38387627 -95.12187015 276.94339318 -93.3125 269.8125 C-92.99067749 268.54780884 -92.99067749 268.54780884 -92.66235352 267.25756836 C-88.20367914 249.11850625 -87.8895667 228.67169594 -97.09375 211.91015625 C-107.00132249 196.78486628 -120.32457258 188.75576309 -138 185 C-143.62847614 184.03950881 -149.09335743 183.81615375 -154.78442383 183.75048828 C-155.76353194 183.73558885 -156.74264006 183.72068941 -157.75141811 183.70533848 C-161.06990849 183.65599656 -164.38845135 183.61318021 -167.70703125 183.5703125 C-170.14850377 183.5355061 -172.58997092 183.50032196 -175.03143311 183.46479797 C-181.12506106 183.37723901 -187.21873568 183.29404052 -193.31244743 183.21260327 C-198.38621408 183.14463091 -203.45994546 183.07440643 -208.53366089 183.00271606 C-209.26680989 182.99235736 -209.9999589 182.98199866 -210.75532454 182.97132605 C-212.25830852 182.95008348 -213.76129247 182.92883867 -215.26427639 182.9075917 C-254.22221381 182.35779755 -293.18074922 181.85084056 -332.13918495 181.33789825 C-338.44864561 181.25482062 -344.75810462 181.17161794 -351.06756312 181.08837652 C-357.41377503 181.00466008 -363.75998795 180.9210195 -370.10620117 180.83740234 C-371.36615068 180.82079811 -372.62610018 180.80419388 -373.92422998 180.78708649 C-389.05105663 180.5878217 -404.17790456 180.39033066 -419.30479062 180.19562632 C-428.98391369 180.07100438 -438.66302016 179.94514357 -448.34211624 179.81844229 C-453.97575347 179.74476757 -459.60939691 179.67171605 -465.24306488 179.60042763 C-467.36376476 179.57351264 -469.48446433 179.54657292 -471.60516357 179.51960754 C-472.64115318 179.50645439 -473.67714279 179.49330124 -474.74452603 179.4797495 C-482.78260251 179.376178 -490.82030021 179.25299247 -498.85803115 179.12566775 C-505.28370927 179.02817004 -511.70878892 178.97074903 -518.13508731 178.9335143 C-522.60541455 178.90369538 -527.07540008 178.8541649 -531.5455054 178.8011018 C-533.67517562 178.78040719 -535.80494948 178.76836283 -537.93471825 178.76545799 C-540.87226794 178.76049172 -543.80800728 178.72520344 -546.745224 178.68299866 C-548.04634489 178.69215378 -548.04634489 178.69215378 -549.37375104 178.70149386 C-553.73126949 178.60678953 -555.48759679 178.39654933 -559.04326725 175.64481258 C-561 173 -561 173 -561.5625 170 C-560.77280633 165.78830044 -558.90737 163.32217482 -555.38969994 160.88375187 C-551.82463972 159.56533168 -548.26994931 159.65358754 -544.51480103 159.60997009 C-543.65343088 159.59246189 -542.79206073 159.57495368 -541.90458846 159.55691493 C-539.01932514 159.50097732 -536.13403986 159.45921495 -533.24853516 159.41772461 C-531.18125593 159.38126814 -529.11398828 159.34415083 -527.04673195 159.30641842 C-520.36469254 159.18873871 -513.68242573 159.0927381 -507 159 C-505.3640848 158.97672441 -505.3640848 158.97672441 -503.69512081 158.95297861 C-487.41908888 158.72198326 -471.14264343 158.53596603 -454.86595106 158.35868192 C-448.91637553 158.29322417 -442.96683155 158.22503274 -437.01728769 158.15676963 C-425.13865859 158.0205036 -413.26001228 157.88581722 -401.38134766 157.75268555 C-400.67817258 157.74480382 -399.97499751 157.7369221 -399.2505141 157.72880154 C-391.50986834 157.64207197 -383.76921868 157.55569715 -376.02856445 157.46972656 C-337.07381349 157.03707026 -298.11937319 156.58596345 -259.16549842 156.07990707 C-255.01768694 156.02604099 -250.86986925 155.97268958 -246.72204601 155.91973742 C-229.63856982 155.70147255 -212.55549401 155.46554546 -195.47261429 155.20445061 C-190.4019566 155.12741918 -185.33127454 155.05668443 -180.26044846 154.99170113 C-174.36974187 154.91590225 -168.47938538 154.82677947 -162.58903074 154.72740293 C-160.45177487 154.69350558 -158.31444019 154.66418535 -156.17705202 154.64002872 C-140.76363012 154.46157138 -126.02263051 153.4995687 -111.5 147.8125 C-110.71157715 147.51134277 -109.9231543 147.21018555 -109.11083984 146.89990234 C-96.03441912 141.78646769 -84.22013686 135.4479314 -73 127 C-72.10152344 126.32582031 -71.20304687 125.65164063 -70.27734375 124.95703125 C-42.19223452 102.91084094 -28.57612892 76.30051848 -16.3125 43.4375 C-15.39360578 41.00026334 -14.47368933 38.56341184 -13.55273438 36.12695312 C-11.39977248 30.42388986 -9.2585858 24.71652627 -7.12408447 19.00653076 C-5.80292465 15.47289273 -4.47794299 11.94069829 -3.15238953 8.40870667 C-2.10065505 5.60615559 -1.05025386 2.80310622 0 0 Z " fill="#FEFDFD" transform="translate(2397,819)"/>
<path d="M0 0 C24.62625 -0.12375 24.62625 -0.12375 49.75 -0.25 C54.89303711 -0.28641602 60.03607422 -0.32283203 65.33496094 -0.36035156 C71.71923828 -0.37841797 71.71923828 -0.37841797 74.72808838 -0.3817749 C76.78557824 -0.38783187 78.84305586 -0.40171758 80.90045166 -0.42230225 C103.53634234 -0.6370345 127.42878676 1.02926549 145 17 C145.68578125 17.59425781 146.3715625 18.18851563 147.078125 18.80078125 C155.68386327 26.73316977 160.74483204 36.58538061 163 48 C163.27263672 49.36898438 163.27263672 49.36898438 163.55078125 50.765625 C165.90184179 67.69326089 164.01152742 85.72549961 154 100 C146.6419265 109.50471709 138.49212031 116.28574513 127 120 C137.27648569 135.65354858 137.27648569 135.65354858 148 151 C152.67721117 157.45824184 157.12778391 164.06077825 161.5625 170.6875 C162.27857422 171.75291016 162.99464844 172.81832031 163.73242188 173.91601562 C164.39951172 174.91697266 165.06660156 175.91792969 165.75390625 176.94921875 C166.35533447 177.84987061 166.9567627 178.75052246 167.57641602 179.6784668 C169 182 169 182 170 185 C162.29864866 185.23231591 154.59766275 185.40968539 146.89359951 185.51812172 C143.31541634 185.57018722 139.7396396 185.64070884 136.1628418 185.75439453 C132.70667743 185.86355076 129.25281673 185.92293618 125.79506111 185.94877243 C123.84294101 185.97608199 121.89174149 186.05407906 119.94102478 186.13296509 C111.28268064 186.13841161 111.28268064 186.13841161 107.83520508 183.07868958 C105.98541394 180.47469636 104.49343494 177.82204013 103 175 C101.87056795 173.26894561 100.72340296 171.54933576 99.55908203 169.84155273 C98.37390808 168.03983134 97.19019752 166.23714662 96.0078125 164.43359375 C95.3764035 163.47348892 94.74499451 162.51338409 94.0944519 161.52418518 C92.10323856 158.49620488 90.11392215 155.46698567 88.125 152.4375 C86.11454563 149.37595165 84.10365219 146.31469667 82.09127808 143.25440979 C80.84478789 141.35879249 79.59941373 139.46244077 78.35525513 137.56529236 C77.79732269 136.71673172 77.23939026 135.86817108 76.66455078 134.99389648 C76.17270294 134.24462387 75.6808551 133.49535126 75.17410278 132.72337341 C74.11304816 131.0509643 74.11304816 131.0509643 73 130 C62.605 129.505 62.605 129.505 52 129 C52 147.48 52 165.96 52 185 C34.84 185 17.68 185 0 185 C0 123.95 0 62.9 0 0 Z M52 45 C52 59.19 52 73.38 52 88 C58.373125 88.0825 64.74625 88.165 71.3125 88.25 C74.29470581 88.30462402 74.29470581 88.30462402 77.3371582 88.36035156 C88.38706286 88.47971634 98.66708501 88.55262505 107.0625 80.375 C111.02252825 75.24409802 112.16125661 70.05157245 111.90625 63.64453125 C110.95508931 57.36470898 107.76210091 53.0886725 103 49 C96.44617802 44.97865276 89.41807372 44.85574176 81.98046875 44.90234375 C81.21883423 44.90335083 80.45719971 44.90435791 79.67248535 44.90539551 C76.84414145 44.91060321 74.01581911 44.92456439 71.1875 44.9375 C61.6896875 44.9684375 61.6896875 44.9684375 52 45 Z " fill="#3F3F40" transform="translate(2236,1203)"/>
<path d="M0 0 C98.28961472 0 98.28961472 0 115.8125 6.1875 C116.68648437 6.49010742 117.56046875 6.79271484 118.4609375 7.10449219 C140.83443111 15.15268926 158.2822573 30.5965438 168.46484375 52.1171875 C172.71349914 62.30221055 175.74418612 73.94518593 176 85 C176.05800781 86.46373047 176.05800781 86.46373047 176.1171875 87.95703125 C176.68774408 114.17093646 168.57353946 137.22644465 150.71875 156.45703125 C146.88679222 160.42088613 146.88679222 160.42088613 145 162 C144.34 162 143.68 162 143 162 C143 162.66 143 163.32 143 164 C100.40903512 193.30764415 50.39818139 185 0 185 C0 123.95 0 62.9 0 0 Z M52 46 C52 76.36 52 106.72 52 138 C83.06423459 139.84465521 83.06423459 139.84465521 109.77734375 126.296875 C119.31552542 116.44019517 122.95053895 104.48637969 123 91 C122.47908317 78.80773051 118.62285699 67.62577824 110.3125 58.5 C94.00625251 43.79919386 72.92410865 46 52 46 Z " fill="#3F3F40" transform="translate(1302,1203)"/>
<path d="M0 0 C1.09046631 0.00563965 2.18093262 0.0112793 3.30444336 0.01708984 C26.90384883 0.36965843 50.03900904 8.37807449 67.75 24.3125 C68.22824219 24.74159668 68.70648437 25.17069336 69.19921875 25.61279297 C88.2408464 42.94728241 98.64244492 66.29984281 99.9375 92.0390625 C100.40942547 120.53156303 90.43688681 145.22797242 70.75 165.6875 C48.81539962 186.77192207 21.6249058 192.89689099 -7.91015625 192.5859375 C-32.83550962 191.94381004 -54.36531633 181.38281979 -72.25 164.3125 C-72.85199219 163.78527344 -73.45398438 163.25804687 -74.07421875 162.71484375 C-89.23274502 148.89903076 -98.02086819 127.3330742 -99.47753906 107.16162109 C-100.75713474 79.40083307 -95.63192416 55.38184982 -76.75 34.0625 C-75.25669402 32.4728517 -73.75703858 30.88913539 -72.25 29.3125 C-71.63769531 28.62542969 -71.02539062 27.93835937 -70.39453125 27.23046875 C-52.87515723 8.29161454 -25.12507291 -0.13767163 0 0 Z M-36.20703125 64.47265625 C-45.11851418 76.8601287 -48.13288214 91.47093654 -45.75 106.45703125 C-42.72871049 119.82967061 -36.15759569 130.6400572 -24.875 138.6875 C-13.81336681 145.4783809 -2.39593749 147.49469375 10.31640625 145.21875 C22.59477252 141.97804354 32.74181443 135.17035379 39.58984375 124.42578125 C46.88245127 110.78557402 49.01215234 96.2720055 44.79296875 81.296875 C40.2602203 68.32676334 33.68622635 59.20404616 21.75 52.3125 C1.0287947 43.11850676 -21.22423187 46.83803397 -36.20703125 64.47265625 Z " fill="#3F3F40" transform="translate(891.25,1198.6875)"/>
<path d="M0 0 C49.17 0 98.34 0 149 0 C149 14.52 149 29.04 149 44 C116.66 44 84.32 44 51 44 C51 52.91 51 61.82 51 71 C80.04 71 109.08 71 139 71 C139 84.53 139 98.06 139 112 C109.96 112 80.92 112 51 112 C51 121.57 51 131.14 51 141 C83.67 141 116.34 141 150 141 C150 155.52 150 170.04 150 185 C100.5 185 51 185 0 185 C0 123.95 0 62.9 0 0 Z " fill="#3F3F41" transform="translate(2473,1203)"/>
<path d="M0 0 C0.81210937 0.73992187 1.62421875 1.47984375 2.4609375 2.2421875 C3.92660156 3.56863281 3.92660156 3.56863281 5.421875 4.921875 C18.93762231 17.56219476 28.56826226 34.07636973 32.4609375 52.2421875 C32.4609375 53.5621875 32.4609375 54.8821875 32.4609375 56.2421875 C14.3109375 56.2421875 -3.8390625 56.2421875 -22.5390625 56.2421875 C-24.5190625 52.2821875 -26.4990625 48.3221875 -28.5390625 44.2421875 C-34.9947309 34.73800902 -45.51914552 29.33433976 -56.4140625 26.4921875 C-70.50115105 25.36522042 -83.01883485 27.51536018 -94.5390625 36.2421875 C-104.45296685 44.84898479 -109.79201803 58.24009213 -110.75 71.06640625 C-111.23918164 85.45963517 -106.97226068 97.84363589 -97.9140625 108.9921875 C-89.49330803 117.99479833 -78.59140037 122.33759408 -66.484375 123.1953125 C-54.62635571 123.38403429 -42.38430017 119.16446583 -33.6015625 110.9921875 C-31.72724364 108.90845017 -30.42726766 107.02117883 -29.15574646 104.50749207 C-25.19055492 96.82413638 -25.19055492 96.82413638 -20.79031372 95.27359009 C-17.41823814 94.96830135 -14.20613988 95.00342945 -10.82421875 95.16796875 C-9.61334091 95.18353317 -8.40246307 95.1990976 -7.15489197 95.21513367 C-3.3006923 95.27654347 0.54637838 95.41449457 4.3984375 95.5546875 C7.01617418 95.60988123 9.63402154 95.66006836 12.25195312 95.70507812 C18.65736562 95.82612549 25.05864247 96.00998685 31.4609375 96.2421875 C31.15622424 97.83408617 30.84770374 99.42525636 30.53759766 101.01611328 C30.3662027 101.90227325 30.19480774 102.78843323 30.01821899 103.70144653 C26.71029047 118.78285443 16.87737393 131.32882016 6.4609375 142.2421875 C5.67009766 143.14517578 5.67009766 143.14517578 4.86328125 144.06640625 C-6.15252165 156.15279869 -22.90606657 164.25320919 -38.5390625 168.2421875 C-41.4765625 168.3671875 -41.4765625 168.3671875 -43.5390625 168.2421875 C-43.8690625 168.9021875 -44.1990625 169.5621875 -44.5390625 170.2421875 C-48.82629544 170.98840538 -53.1961846 171.05700895 -57.5390625 171.2421875 C-58.77785156 171.29632812 -60.01664062 171.35046875 -61.29296875 171.40625 C-90.87156691 172.06288891 -117.63688969 162.22089538 -139.09765625 141.80859375 C-158.58599135 121.23944977 -165.57435056 96.07619781 -164.85546875 68.3359375 C-163.78145594 43.20634743 -151.98977497 20.86267804 -134.0703125 3.46484375 C-97.98367197 -28.22234523 -37.36176513 -31.90024464 0 0 Z " fill="#3F3F40" transform="translate(510.5390625,1220.7578125)"/>
<path d="M0 0 C17.49 0 34.98 0 53 0 C53.03738281 7.63382813 53.07476563 15.26765625 53.11328125 23.1328125 C53.14358423 27.99090729 53.17474744 32.84896647 53.20898438 37.70703125 C53.26315486 45.40509165 53.31427076 53.10308163 53.34643555 60.80126953 C53.3725898 67.0129961 53.41307716 73.22448399 53.46318626 79.43606186 C53.47977331 81.79688404 53.49133808 84.15774743 53.49761391 86.51861954 C52.9582922 110.70484789 52.9582922 110.70484789 63 132 C71.12047178 139.09986604 79.63804346 140.47953686 90.203125 140.3125 C97.87969339 139.68068367 104.86803442 137.199394 110.50390625 131.8203125 C118.32149084 122.30857772 119.2930708 110.61182656 119.31884766 98.76708984 C119.32889328 97.69273682 119.3389389 96.61838379 119.34928894 95.51147461 C119.37994052 91.99463387 119.39710578 88.47786862 119.4140625 84.9609375 C119.43278865 82.50899616 119.45236313 80.05706117 119.4727478 77.60513306 C119.52392203 71.17730462 119.56362635 64.74945532 119.60089111 58.3215332 C119.64808935 50.59536136 119.70962387 42.86929183 119.76873779 35.14320374 C119.85677056 23.42884412 119.92666374 11.71450234 120 0 C137.49 0 154.98 0 173 0 C173.08021762 26.77040196 173.08021762 26.77040196 173.09765625 38.27148438 C173.10956448 46.08783722 173.12357966 53.90414276 173.15087891 61.72045898 C173.17277281 68.02933327 173.18460319 74.33815674 173.18975449 80.64706612 C173.19342076 83.04173137 173.2005791 85.43639418 173.21146011 87.83103752 C173.33130995 115.32612167 172.45869051 143.78934152 152.23046875 164.796875 C151.49441406 165.52390625 150.75835938 166.2509375 150 167 C149.39800781 167.62390625 148.79601563 168.2478125 148.17578125 168.890625 C138.63992544 178.0748332 125.73905153 183.23380595 113 186 C111.47826172 186.33644531 111.47826172 186.33644531 109.92578125 186.6796875 C83.81236563 191.36918157 54.05259163 188.84351482 31 175 C31 174.34 31 173.68 31 173 C30.41605469 172.72800781 29.83210938 172.45601562 29.23046875 172.17578125 C16.52121276 165.47615594 8.94206796 151.08060828 4.58154297 137.91162109 C-0.91445892 119.84541842 -0.14099928 100.89367774 -0.09765625 82.2265625 C-0.09578781 79.84760569 -0.09436592 77.46864849 -0.09336853 75.08969116 C-0.08957689 68.87230337 -0.07977577 62.65493948 -0.06866455 56.43756104 C-0.05656458 48.95414728 -0.05203221 41.47072546 -0.04621124 33.98730469 C-0.03656179 22.65818658 -0.01738188 11.32912076 0 0 Z " fill="#3F3F40" transform="translate(1052,1203)"/>
<path d="M0 0 C16.83 0 33.66 0 51 0 C52.753125 4.186875 54.50625 8.37375 56.3125 12.6875 C67.96664757 40.48994761 79.69845278 68.2598113 91.5 96 C100.37190287 116.85422256 109.19687778 137.72811894 117.99438477 158.61383057 C118.93084146 160.83589748 119.86846096 163.05746869 120.80664062 165.27880859 C122.27111045 168.74661928 123.73004895 172.21673285 125.1875 175.6875 C125.59154053 176.64269531 125.99558105 177.59789062 126.41186523 178.58203125 C126.76450439 179.42507813 127.11714355 180.268125 127.48046875 181.13671875 C127.77848389 181.84530029 128.07649902 182.55388184 128.38354492 183.28393555 C129 185 129 185 129 187 C110.19 187 91.38 187 72 187 C71.01 184.03 70.02 181.06 69 178 C68.26994225 176.11688179 67.51922226 174.24149844 66.73828125 172.37890625 C66.14370117 170.94708008 66.14370117 170.94708008 65.53710938 169.48632812 C64.7092108 167.50967077 63.88107959 165.53311084 63.05273438 163.55664062 C62.66021484 162.61111328 62.26769531 161.66558594 61.86328125 160.69140625 C61.50532471 159.83748291 61.14736816 158.98355957 60.77856445 158.10375977 C60 156 60 156 60 154 C36.9 154.33 13.8 154.66 -10 155 C-14.29 165.56 -18.58 176.12 -23 187 C-41.15 187 -59.3 187 -78 187 C-75.96433778 180.89301333 -73.85782224 175.0701545 -71.296875 169.19921875 C-70.94264969 168.37828735 -70.58842438 167.55735596 -70.22346497 166.71154785 C-69.46395708 164.95177767 -68.70291449 163.19266919 -67.94046021 161.43417358 C-65.89287965 156.70992039 -63.85852224 151.97998238 -61.82421875 147.25 C-61.41239853 146.2928862 -61.00057831 145.3357724 -60.57627869 144.34965515 C-56.84078652 135.65536068 -53.1864894 126.92874727 -49.5625 118.1875 C-44.00505192 104.79257695 -38.39561238 91.42051431 -32.75 78.0625 C-32.35611084 77.13032654 -31.96222168 76.19815308 -31.55639648 75.23773193 C-28.26999209 67.46063554 -24.98128974 59.68451141 -21.69244385 51.90844727 C-19.06668542 45.69997876 -16.44171648 39.49117757 -13.81774902 33.2819519 C-12.59314153 30.38498646 -11.36740014 27.48850263 -10.14160156 24.59204102 C-9.38731324 22.80747833 -8.63307866 21.02289292 -7.87890625 19.23828125 C-7.37699516 18.05362274 -7.37699516 18.05362274 -6.86494446 16.84503174 C-4.50460089 11.2550204 -2.25467119 5.63667798 0 0 Z M25 63 C22.28933416 69.79742237 19.58396462 76.59693467 16.88232422 83.39794922 C15.96200387 85.71289137 15.04045741 88.02734646 14.11767578 90.34130859 C12.79399622 93.66117087 11.47468907 96.98274116 10.15625 100.3046875 C9.74064819 101.34430634 9.32504639 102.38392517 8.89685059 103.45504761 C8.5164563 104.41589264 8.13606201 105.37673767 7.74414062 106.36669922 C7.23784119 107.63910965 7.23784119 107.63910965 6.72131348 108.93722534 C5.88997257 110.95044182 5.88997257 110.95044182 6 113 C18.87 113 31.74 113 45 113 C38.84140392 96.25902756 32.57669756 79.58126418 26 63 C25.67 63 25.34 63 25 63 Z " fill="#3F3F40" transform="translate(2042,1201)"/>
<path d="M0 0 C48.84 0 97.68 0 148 0 C148 14.85 148 29.7 148 45 C116.32 45 84.64 45 52 45 C52 55.23 52 65.46 52 76 C80.71 76 109.42 76 139 76 C139 90.19 139 104.38 139 119 C110.29 119 81.58 119 52 119 C52 140.78 52 162.56 52 185 C34.84 185 17.68 185 0 185 C0 123.95 0 62.9 0 0 Z " fill="#3F3F40" transform="translate(1551,1203)"/>
<path d="M0 0 C17.16 0 34.32 0 52 0 C52 45.87 52 91.74 52 139 C81.37 139 110.74 139 141 139 C141 154.18 141 169.36 141 185 C94.47 185 47.94 185 0 185 C0 123.95 0 62.9 0 0 Z " fill="#3F3F40" transform="translate(1769,1203)"/>
<path d="M0 0 C17.16 0 34.32 0 52 0 C52 45.87 52 91.74 52 139 C81.37 139 110.74 139 141 139 C141 154.18 141 169.36 141 185 C94.47 185 47.94 185 0 185 C0 123.95 0 62.9 0 0 Z " fill="#3F3F40" transform="translate(599,1203)"/>
</svg>
